<svg width="455" height="46" viewBox="0 0 455 46" fill="none" xmlns="http://www.w3.org/2000/svg">
<path d="M419.295 43.6931C419.295 42.7411 420.056 41.7891 421.198 41.7891C422.149 41.7891 423.101 42.5507 423.101 43.6931C423.101 44.9307 422.339 45.5971 421.198 45.5971C420.056 45.5971 419.295 44.9307 419.295 43.6931ZM419.58 43.6931C419.58 44.4547 420.341 45.1211 421.293 45.1211C422.054 45.1211 422.72 44.3595 422.72 43.6931C422.72 43.0267 421.959 42.2651 421.293 42.2651C420.246 42.2651 419.58 42.9315 419.58 43.6931Z" fill="#695E4A"/>
<path d="M421.96 44.9318H421.484L420.723 43.9798H420.247V44.9318H419.962V42.7422H420.913C421.199 42.7422 421.389 42.7422 421.389 43.0278C421.674 43.0278 421.674 43.3134 421.674 43.5038C421.674 43.9798 421.389 43.9798 420.913 43.9798L421.96 44.9318ZM421.008 43.6942C421.294 43.6942 421.77 43.6942 421.77 43.4086C421.77 43.123 421.484 43.123 421.294 43.123H420.818V43.8846H421.104V43.6942H421.008Z" fill="#695E4A"/>
<path d="M412.065 45.6011C425.385 34.1769 443.747 23.324 454.213 19.2304C452.5 18.2784 450.122 16.8503 447.458 15.1367C434.423 19.516 418.915 29.2265 405.119 40.0794C407.403 41.9834 409.876 43.6971 412.065 45.6011Z" fill="#695E4A"/>
<path d="M405.975 14.8492C404.073 13.8972 401.884 12.9452 400.172 12.1836C395.129 14.5636 388.755 18.4669 380.572 24.2741C382.285 25.2262 384.188 26.4638 386.186 27.4158C392.655 22.8461 398.935 18.4669 405.975 14.8492Z" fill="#695E4A"/>
<path d="M417.868 9.33071C415.489 8.09309 407.212 4.95145 401.408 3.52344C399.696 4.28505 397.317 5.23706 395.604 5.71306C397.793 6.18907 405.499 8.3787 412.064 11.8059C413.777 11.0443 416.155 9.99712 417.868 9.33071Z" fill="#695E4A"/>
<path d="M389.801 8.56641C382.57 11.9936 374.768 16.5633 370.392 19.5145C371.819 20.2761 373.341 20.7522 375.434 21.7042C384.853 15.4209 392.179 11.5176 395.034 10.28C392.94 9.51842 390.942 9.04241 389.801 8.56641Z" fill="#695E4A"/>
<path d="M423.386 7.33049C425.098 6.85448 427.001 6.37848 428.714 5.61687C423.861 3.42724 417.582 1.23761 411.969 0C411.017 0.285603 408.353 0.952012 406.641 1.42802C408.639 2.28483 414.918 3.71284 423.386 7.33049Z" fill="#695E4A"/>
<path d="M392.465 31.132C394.368 32.3696 396.556 34.0832 398.744 35.2256C412.54 24.5631 426.145 16.2806 441.083 11.5205C438.895 10.5685 437.182 9.61652 434.803 8.37891C425.575 10.7589 410.352 17.0422 392.465 31.132Z" fill="#695E4A"/>
<path d="M0.379883 42.2725H10.5602C15.6027 42.2725 18.0765 39.6069 18.0765 35.9892C18.0765 33.038 16.3639 30.9436 13.2242 30.3724C16.1736 29.6107 17.3153 27.9923 17.3153 25.3267C17.3153 21.8995 14.9367 19.5194 9.79903 19.5194H0.379883V42.2725ZM9.13303 32.562C11.0359 32.562 12.2727 33.514 12.2727 35.5132C12.2727 37.4172 11.0359 38.4644 9.13303 38.4644H5.70788V32.6572L9.13303 32.562ZM8.37189 23.3275C10.2747 23.3275 11.5116 24.0891 11.5116 25.9931C11.5116 27.8971 10.2747 28.6587 8.37189 28.6587H5.70788V23.3275H8.37189ZM38.1516 19.2338H32.5382L23.785 42.2725H29.5888L31.3013 37.4172H39.5788L41.2913 42.2725H47.095L38.1516 19.2338ZM35.4876 24.8507L38.1516 33.3236H32.5382L35.4876 24.8507ZM75.7331 19.2338H70.4051V34.7516L60.415 19.2338H54.6113V42.2725H59.9393V26.7547L69.8342 42.2725H75.6379V19.2338H75.7331ZM99.8994 42.2725L92.1928 30.658V42.2725H86.5793V19.2338H92.1928V30.3724L99.4236 19.2338H105.703L98.1868 30.3724L106.464 42.2725H99.8994ZM126.254 30.8484C126.254 35.418 128.918 38.3692 132.533 38.3692C136.149 38.3692 138.813 35.418 138.813 30.8484C138.813 26.2787 136.149 23.3275 132.533 23.3275C128.918 23.3275 126.254 26.2787 126.254 30.8484ZM120.26 30.8484C120.26 24.0891 125.112 18.7578 132.629 18.7578C140.145 18.7578 144.997 24.0891 144.997 30.8484C144.997 37.6076 140.145 42.9389 132.629 42.9389C125.112 42.9389 120.45 37.6076 120.26 30.8484ZM152.704 42.2725H158.317V33.3236H165.548V28.9443H158.317V23.8987H167.07L168.022 19.5194H152.513L152.704 42.2725ZM194.091 19.2338H188.477L179.724 42.2725H185.528L187.241 37.4172H195.518L197.231 42.2725H203.034L194.091 19.2338ZM191.427 24.8507L194.091 33.3236H188.477L191.427 24.8507ZM236.239 19.2338H229.674L223.585 31.8004L217.496 19.2338H210.931V42.2725H215.974V26.7547L223.49 42.2725L231.006 26.7547V42.2725H236.334L236.239 19.2338ZM247.181 42.2725H262.879V37.8932H252.699V32.8476H260.691V28.4683H252.699V23.6131H261.928L262.879 19.2338H246.895V42.2725H247.181ZM284.191 42.2725H290.28L284.477 32.562C287.616 31.61 289.043 29.4203 289.043 26.2787C289.043 22.1851 286.665 19.2338 280.766 19.2338H271.823V42.2725H277.436V33.3236H278.863L284.191 42.2725ZM280.1 23.6131C282.479 23.6131 283.715 24.5651 283.715 26.5643C283.715 28.5635 282.479 29.5155 280.1 29.5155H277.721V23.7083L280.1 23.6131ZM298.748 42.2725H304.361V40.5589V19.2338H298.748V42.2725ZM331.858 36.1796C329.669 37.6076 327.767 38.0836 325.769 38.0836C321.392 38.0836 318.538 35.1324 318.538 30.8484C318.538 26.4691 321.487 23.6131 325.578 23.6131C327.481 23.6131 329.479 24.0891 331.382 25.5171V20.1858C329.479 19.2338 327.291 18.7578 324.817 18.7578C317.301 18.7578 312.449 24.0891 312.258 30.8484C312.258 37.6076 317.111 42.9389 324.817 42.9389C327.481 42.9389 329.669 42.4629 331.572 41.5109L331.858 36.1796ZM352.504 19.2338H346.89L338.137 42.2725H343.941L345.653 37.4172H353.931L355.643 42.2725H361.447L352.504 19.2338ZM349.554 24.8507L352.218 33.3236H346.7L349.554 24.8507Z" fill="#695E4A"/>
</svg>
