<svg width="232" height="50" viewBox="0 0 232 50" fill="none" xmlns="http://www.w3.org/2000/svg">
<path d="M0.27575 17H7.93475C11.5688 17 13.9608 15.528 13.9608 12.584V12.538C13.9608 10.376 12.8108 9.295 10.9478 8.582C12.0978 7.938 13.0638 6.926 13.0638 5.109V5.063C13.0638 3.959 12.6958 3.062 11.9598 2.326C11.0398 1.406 9.59075 0.899999 7.75075 0.899999H0.27575V17ZM9.54475 5.707C9.54475 6.903 8.55575 7.409 6.99175 7.409H3.72575V4.005H7.22175C8.71675 4.005 9.54475 4.603 9.54475 5.661V5.707ZM10.4418 12.101V12.147C10.4418 13.343 9.49875 13.895 7.93475 13.895H3.72575V10.353H7.81975C9.63675 10.353 10.4418 11.02 10.4418 12.101ZM24.6944 17.276C29.6624 17.276 33.2734 13.527 33.2734 8.95V8.904C33.2734 4.327 29.7084 0.624 24.7404 0.624C19.7724 0.624 16.1614 4.373 16.1614 8.95V8.996C16.1614 13.573 19.7264 17.276 24.6944 17.276ZM24.7404 14.01C21.8884 14.01 19.8644 11.71 19.8644 8.95V8.904C19.8644 6.144 21.8424 3.89 24.6944 3.89C27.5464 3.89 29.5704 6.19 29.5704 8.95V8.996C29.5704 11.756 27.5924 14.01 24.7404 14.01ZM36.4154 17H44.0744C47.7084 17 50.1004 15.528 50.1004 12.584V12.538C50.1004 10.376 48.9504 9.295 47.0874 8.582C48.2374 7.938 49.2034 6.926 49.2034 5.109V5.063C49.2034 3.959 48.8354 3.062 48.0994 2.326C47.1794 1.406 45.7304 0.899999 43.8904 0.899999H36.4154V17ZM45.6844 5.707C45.6844 6.903 44.6954 7.409 43.1314 7.409H39.8654V4.005H43.3614C44.8564 4.005 45.6844 4.603 45.6844 5.661V5.707ZM46.5814 12.101V12.147C46.5814 13.343 45.6384 13.895 44.0744 13.895H39.8654V10.353H43.9594C45.7764 10.353 46.5814 11.02 46.5814 12.101ZM63.6585 17H67.2005V4.166H72.0995V0.899999H58.7595V4.166H63.6585V17ZM71.3772 17H74.9882L76.4602 13.389H83.2682L84.7402 17H88.4432L81.5432 0.784999H78.2772L71.3772 17ZM77.7252 10.261L79.8642 5.04L82.0032 10.261H77.7252ZM90.9281 17H94.4241V6.765L102.221 17H105.234V0.899999H101.738V10.813L94.1941 0.899999H90.9281V17ZM109.099 17H115.378C120.438 17 123.934 13.481 123.934 8.95V8.904C123.934 4.373 120.438 0.899999 115.378 0.899999H109.099V17ZM115.378 4.097C118.276 4.097 120.231 6.098 120.231 8.95V8.996C120.231 11.848 118.276 13.803 115.378 13.803H112.641V4.097H115.378ZM127.09 17H138.659V13.78H130.632V0.899999H127.09V17ZM141.33 17H153.589V13.849H144.849V10.468H152.439V7.317H144.849V4.051H153.474V0.899999H141.33V17ZM156.739 17H160.281V11.848H163.064L166.514 17H170.654L166.721 11.25C168.768 10.491 170.171 8.858 170.171 6.259V6.213C170.171 4.695 169.688 3.43 168.791 2.533C167.733 1.475 166.146 0.899999 164.099 0.899999H156.739V17ZM160.281 8.72V4.097H163.8C165.525 4.097 166.583 4.879 166.583 6.397V6.443C166.583 7.8 165.594 8.72 163.869 8.72H160.281ZM178.875 17H182.486L183.958 13.389H190.766L192.238 17H195.941L189.041 0.784999H185.775L178.875 17ZM185.223 10.261L187.362 5.04L189.501 10.261H185.223ZM198.426 17H201.922V6.765L209.719 17H212.732V0.899999H209.236V10.813L201.692 0.899999H198.426V17ZM216.597 17H222.876C227.936 17 231.432 13.481 231.432 8.95V8.904C231.432 4.373 227.936 0.899999 222.876 0.899999H216.597V17ZM222.876 4.097C225.774 4.097 227.729 6.098 227.729 8.95V8.996C227.729 11.848 225.774 13.803 222.876 13.803H220.139V4.097H222.876ZM27.0683 49.115H30.1963L36.7053 32.9H32.8873L28.6783 44.239L24.4693 32.9H20.5593L27.0683 49.115ZM35.5183 49H39.1293L40.6013 45.389H47.4093L48.8813 49H52.5843L45.6843 32.785H42.4183L35.5183 49ZM41.8663 42.261L44.0053 37.04L46.1443 42.261H41.8663ZM55.0692 49H66.6382V45.78H58.6112V32.9H55.0692V49ZM69.3094 49H80.8784V45.78H72.8514V32.9H69.3094V49ZM83.7107 49H87.2527V32.9H83.7107V49ZM98.1717 49H105.831C109.465 49 111.857 47.528 111.857 44.584V44.538C111.857 42.376 110.707 41.295 108.844 40.582C109.994 39.938 110.96 38.926 110.96 37.109V37.063C110.96 35.959 110.592 35.062 109.856 34.326C108.936 33.406 107.487 32.9 105.647 32.9H98.1717V49ZM107.441 37.707C107.441 38.903 106.452 39.409 104.888 39.409H101.622V36.005H105.118C106.613 36.005 107.441 36.603 107.441 37.661V37.707ZM108.338 44.101V44.147C108.338 45.343 107.395 45.895 105.831 45.895H101.622V42.353H105.716C107.533 42.353 108.338 43.02 108.338 44.101ZM114.77 49H127.029V45.849H118.289V42.468H125.879V39.317H118.289V36.051H126.914V32.9H114.77V49ZM130.179 49H133.675V38.765L141.472 49H144.485V32.9H140.989V42.813L133.445 32.9H130.179V49ZM148.349 49H160.608V45.849H151.868V42.468H159.458V39.317H151.868V36.051H160.493V32.9H148.349V49ZM169.485 49.23C172.958 49.23 175.396 47.436 175.396 44.239V44.193C175.396 41.387 173.556 40.214 170.29 39.363C167.507 38.65 166.817 38.305 166.817 37.247V37.201C166.817 36.419 167.53 35.798 168.887 35.798C170.244 35.798 171.647 36.396 173.073 37.385L174.913 34.717C173.28 33.406 171.279 32.67 168.933 32.67C165.644 32.67 163.298 34.602 163.298 37.523V37.569C163.298 40.766 165.391 41.663 168.634 42.491C171.325 43.181 171.877 43.641 171.877 44.538V44.584C171.877 45.527 171.003 46.102 169.554 46.102C167.714 46.102 166.196 45.343 164.747 44.147L162.654 46.654C164.586 48.379 167.047 49.23 169.485 49.23ZM186.014 49.276C189.119 49.276 190.959 48.172 192.615 46.401L190.361 44.124C189.096 45.274 187.969 46.01 186.129 46.01C183.369 46.01 181.46 43.71 181.46 40.95V40.904C181.46 38.144 183.415 35.89 186.129 35.89C187.739 35.89 189.004 36.58 190.246 37.707L192.5 35.108C191.005 33.636 189.188 32.624 186.152 32.624C181.207 32.624 177.757 36.373 177.757 40.95V40.996C177.757 45.619 181.276 49.276 186.014 49.276ZM195.45 49H198.992V42.537H205.524V49H209.066V32.9H205.524V39.271H198.992V32.9H195.45V49Z" fill="#695E4A"/>
</svg>
