<svg width="412" height="99" viewBox="0 0 412 99" fill="none" xmlns="http://www.w3.org/2000/svg">
<path fill-rule="evenodd" clip-rule="evenodd" d="M46.9321 56.0309C46.9321 56.0309 47.1517 55.8138 47.1517 55.5967C47.1517 55.1625 46.7126 55.3796 46.0539 54.9454C45.8343 54.9454 45.8343 54.7283 45.6147 54.7283C44.956 54.077 45.1756 53.4257 44.956 52.7744C44.5169 51.906 44.5169 51.906 44.5169 51.906C44.5169 51.906 45.3952 52.3402 46.9321 53.2086C48.6887 54.2941 48.03 55.8138 48.03 55.8138C48.03 55.8138 48.9082 56.248 49.3474 55.5967C49.5669 55.1625 49.7865 54.7283 50.2256 54.2941C50.8843 52.9915 50.6648 51.4718 50.6648 51.4718C50.6648 51.4718 50.4452 51.0376 50.2256 50.1692C49.7865 49.3008 49.1278 48.6495 49.1278 48.6495C47.1517 46.9126 44.2973 47.3468 41.8821 46.4784C40.5647 45.8271 39.4669 45.1758 39.4669 45.1758C39.4669 45.1758 38.8082 44.7416 38.369 44.5245C37.9299 44.3074 37.4908 44.3074 37.4908 44.3074C37.4908 44.3074 36.6125 44.0903 35.5147 44.3074C34.856 44.5245 34.1973 45.1758 34.1973 45.1758C34.1973 45.1758 35.2951 44.9587 35.9538 45.61C36.3929 46.2613 36.6125 46.6955 36.8321 47.3468C37.2712 47.9982 37.7103 48.2153 37.7103 48.2153C37.7103 48.2153 37.0516 48.4324 36.3929 49.0837C35.2951 49.9521 35.0755 50.8205 35.0755 50.8205C35.0755 50.8205 36.1734 50.1692 37.2712 50.8205C38.1495 51.2547 38.5886 51.2547 38.5886 51.2547C38.5886 51.2547 37.4908 51.906 36.6125 52.9915C35.7342 53.8599 36.1734 54.7283 36.1734 54.7283C36.1734 54.7283 36.3929 54.2941 36.8321 54.2941C37.2712 54.077 37.9299 54.2941 37.9299 54.2941C37.9299 54.2941 37.2712 54.5112 36.8321 55.5967C36.3929 56.4651 35.5147 56.6822 35.5147 56.6822C35.5147 56.6822 35.7342 57.1164 36.6125 57.1164C37.4908 57.3335 38.1495 56.6822 38.5886 56.4651C39.0277 56.0309 39.6864 56.0309 39.6864 56.0309C39.0277 57.9848 40.1256 58.6361 40.1256 58.6361C40.1256 58.6361 40.3451 57.7677 41.2234 56.8993C42.3212 55.8138 43.8582 55.8138 43.8582 55.8138C43.8582 55.8138 44.5169 55.5967 45.6147 56.0309C46.493 55.3796 46.9321 56.0309 46.9321 56.0309Z" fill="#695E4A"/>
<path fill-rule="evenodd" clip-rule="evenodd" d="M96.1145 61.8945H95.4558C95.2362 59.7235 94.5775 59.0722 92.821 59.0722H86.0144V66.8878C86.0144 68.8417 86.4535 69.7101 89.3079 69.7101V70.3614H80.5252V69.7101C82.7209 69.493 83.16 69.0588 83.16 66.2365V52.1249C83.16 49.7368 82.9405 48.8684 80.3057 48.8684V48H96.5536V52.342H96.1145C95.8949 50.171 95.2362 49.5197 93.0405 49.5197H86.0144V57.9867H93.2601C94.5775 57.9867 95.2362 57.1183 95.4558 55.5985H96.1145V61.8945Z" fill="#695E4A"/>
<path fill-rule="evenodd" clip-rule="evenodd" d="M108.41 55.3769C105.775 55.594 105.775 55.8111 105.775 58.6334V67.3175C105.775 69.2714 106.215 69.7056 108.41 69.7056V70.3569H100.506V69.7056C102.262 69.4885 102.482 69.4885 102.702 69.0543C103.141 68.403 103.141 66.449 103.141 65.7977V57.765C103.141 55.8111 102.702 55.3769 100.506 55.3769V54.7256H108.63V55.3769H108.41Z" fill="#695E4A"/>
<path fill-rule="evenodd" clip-rule="evenodd" d="M112.362 54.9455C113.899 54.7284 115.875 54.5113 118.73 54.5113C120.047 54.2942 125.756 54.5113 125.756 59.0704C125.756 61.8927 123.34 62.7611 122.243 63.1953C122.901 63.6295 123.121 64.0637 124.438 66.6689C125.756 69.057 126.414 69.4912 127.732 69.9254V70.5767C125.536 70.7938 123.56 69.7083 122.243 67.5373C121.804 66.886 120.267 64.0637 119.827 63.6295H117.412V67.1031C117.412 69.057 117.632 69.7083 119.169 69.7083H120.267V70.3596H112.143V69.7083C114.558 69.9254 114.777 69.057 114.777 67.7544V57.3336C114.777 55.5968 114.558 55.5968 112.143 55.5968V54.9455H112.362ZM117.632 62.7611H119.388C120.267 62.7611 123.34 62.7611 123.34 59.0704C123.34 56.031 120.925 55.1626 119.388 55.1626C118.73 55.1626 118.29 55.3797 117.851 55.3797V62.7611H117.632Z" fill="#695E4A"/>
<path fill-rule="evenodd" clip-rule="evenodd" d="M140.028 58.2014H139.37C138.491 56.2475 137.394 54.9449 135.418 54.9449C133.881 54.9449 132.783 56.0304 132.783 57.333C132.783 58.8527 133.661 59.2869 137.613 61.8921C138.491 62.5434 140.687 63.846 140.687 66.6684C140.687 69.0565 138.931 71.2275 135.857 71.2275C134.978 71.2275 134.759 71.0104 132.783 70.5762C132.563 70.5762 132.563 70.5762 132.344 70.5762C132.124 70.5762 131.904 70.7933 131.904 70.7933H131.246L130.807 66.8855H131.685C132.783 69.9249 134.978 70.3591 135.857 70.3591C136.735 70.142 138.931 69.4907 138.931 67.3197C138.931 65.3657 137.613 64.4973 134.978 62.7605C131.685 60.8066 131.026 59.2869 131.026 57.9843C131.026 55.5962 133.002 53.8594 135.198 53.8594C136.076 53.8594 136.954 54.0765 137.613 54.2936C137.833 54.5107 138.491 54.7278 138.711 54.7278C138.931 54.7278 138.931 54.7278 139.15 54.5107H139.809L140.028 58.2014Z" fill="#695E4A"/>
<path fill-rule="evenodd" clip-rule="evenodd" d="M144.42 54.0781H144.859C145.078 54.2952 145.078 54.5123 145.298 54.5123C145.517 54.5123 145.737 54.5123 146.396 54.5123H156.496C157.813 54.5123 157.813 54.2952 158.033 54.0781H158.691L159.131 58.2031H158.472C157.813 55.5978 157.374 55.5978 155.837 55.5978H152.983V67.3213C152.983 69.4923 153.422 69.4923 155.837 69.7094V70.3607H147.274V69.7094C149.909 69.4923 150.128 69.4923 150.128 67.5384V55.5978H147.494C146.396 55.5978 146.176 55.5978 145.737 55.8149C145.298 56.032 145.298 56.4662 144.639 58.2031H143.98L144.42 54.0781Z" fill="#695E4A"/>
<path fill-rule="evenodd" clip-rule="evenodd" d="M204.362 61.8899H208.314C209.631 61.8899 210.07 61.8899 210.29 59.936H211.168V64.7122H210.29C210.29 62.7583 210.07 62.7583 208.094 62.7583H204.581V67.7517C204.581 69.4885 204.581 69.4885 206.338 69.4885H208.972C210.729 69.4885 211.388 69.0543 212.266 66.4491H212.925L212.486 70.3569H199.312V69.7056C201.727 69.9227 201.946 69.0543 201.946 67.7517V57.5479C201.946 55.594 201.507 55.3769 199.312 55.3769V54.7256H211.827L212.046 58.1992H211.388C210.949 55.8111 210.509 55.594 208.753 55.594H204.801V61.8899H204.362Z" fill="#695E4A"/>
<path fill-rule="evenodd" clip-rule="evenodd" d="M225.44 70.3597H217.097V69.7083C219.512 69.9254 219.731 69.057 219.731 67.7544V57.3336C219.731 56.4652 219.731 55.5968 218.195 55.5968C217.755 55.5968 217.316 55.5968 217.097 55.8139V54.9455C218.195 54.7284 220.39 54.5113 223.684 54.5113C225.001 54.2942 230.271 54.5113 230.271 59.0704C230.271 61.8927 227.636 63.8466 224.782 63.8466C223.684 63.8466 222.805 63.6295 222.147 63.4124V67.5373C222.147 69.2741 222.366 69.4912 225.221 69.4912V70.3597H225.44ZM222.366 62.7611C222.805 62.9782 223.464 63.1953 224.342 63.1953C227.636 63.1953 227.636 59.7217 227.636 59.0704C227.636 57.9849 227.197 55.1626 223.684 55.1626C223.245 55.1626 222.586 55.3797 222.366 55.3797V62.7611Z" fill="#695E4A"/>
<path fill-rule="evenodd" clip-rule="evenodd" d="M241.028 54.5078V55.1591C238.613 55.3762 238.394 55.8104 238.394 57.7643V64.2774C238.394 66.2313 238.394 69.7049 243.004 69.7049C244.541 69.7049 246.957 69.2707 247.835 67.0997C248.274 66.2313 248.055 64.4945 248.055 63.6261V58.1985C248.055 55.8104 248.055 55.3762 245.42 55.3762V54.7249H251.787V55.3762C249.372 55.3762 249.152 56.0275 249.152 57.5472V64.0603C249.152 66.4484 249.152 71.0075 242.565 71.0075C241.248 71.0075 237.735 70.7904 236.418 68.1852C235.759 67.3168 235.759 65.7971 235.759 64.9287V57.9814C235.759 56.0275 235.759 55.8104 233.124 55.5933V54.942H241.028V54.5078Z" fill="#695E4A"/>
<path fill-rule="evenodd" clip-rule="evenodd" d="M254.423 54.9412C256.179 54.7241 258.594 54.507 261.01 54.507C261.449 54.2899 262.986 54.507 264.523 54.9412C266.06 55.3754 267.377 56.2439 267.377 57.9807C267.377 60.3688 264.742 61.2372 263.864 61.4543C265.62 61.8885 268.694 62.5398 268.694 65.7963C268.694 67.9673 267.377 69.0528 266.06 69.7041C264.962 70.3554 263.425 70.3554 262.107 70.3554H253.983V69.7041C256.618 69.2699 257.057 69.0528 257.057 66.6647V57.5465C257.057 56.0268 256.838 55.8097 254.642 55.5926V54.9412H254.423ZM259.253 61.2372H260.57C262.327 61.2372 264.523 61.0201 264.523 57.9807C264.523 56.6781 263.644 55.8097 262.766 55.3754C261.668 55.1583 260.351 55.1583 259.253 55.1583V61.2372ZM259.253 67.316C259.253 68.6186 259.473 69.487 261.449 69.487C261.888 69.487 262.766 69.487 263.864 69.0528C264.962 68.6186 265.84 67.7502 265.84 65.7963C265.84 63.8424 264.742 62.7569 263.425 62.3227C262.107 61.8885 260.57 61.8885 259.253 61.8885V67.316Z" fill="#695E4A"/>
<path fill-rule="evenodd" clip-rule="evenodd" d="M280.77 54.7256V55.3769C278.135 55.594 277.916 55.594 277.916 57.1137V68.1859C277.916 69.2714 277.916 69.4885 280.551 69.4885C283.186 69.4885 284.064 69.2714 285.381 66.6662H286.04L284.503 70.3569H272.646V69.7056C275.062 69.9227 275.281 69.0543 275.281 67.7517V57.9821C275.281 55.594 275.281 55.3769 272.427 55.3769V54.7256H280.77Z" fill="#695E4A"/>
<path fill-rule="evenodd" clip-rule="evenodd" d="M296.359 55.3769C293.725 55.594 293.725 55.8111 293.725 58.6334V67.3175C293.725 69.2714 294.164 69.7056 296.579 69.7056V70.3569H288.235V69.7056C289.992 69.4885 290.211 69.4885 290.431 69.0543C290.87 68.403 290.87 66.449 290.87 65.7977V57.765C290.87 55.8111 290.431 55.3769 288.235 55.3769V54.7256H296.359V55.3769Z" fill="#695E4A"/>
<path fill-rule="evenodd" clip-rule="evenodd" d="M315.241 58.6356H314.802C314.363 57.9843 313.924 56.8988 313.045 56.2475C311.948 55.3791 310.85 54.7278 309.093 54.7278C305.361 54.7278 302.945 58.4185 302.945 62.7605C302.945 67.5368 306.019 69.9249 308.654 69.9249C312.167 69.9249 314.363 67.3197 315.241 66.4513H315.9C315.461 67.7539 315.021 68.4052 313.924 70.3591C313.045 70.3591 312.606 70.3591 311.948 70.3591C309.752 70.5762 309.532 70.5762 308.654 70.5762C302.287 70.5762 300.311 65.7999 300.311 62.5434C300.311 57.7672 304.263 53.8594 309.093 53.8594C310.411 53.8594 311.508 54.0765 313.485 54.9449C313.704 55.162 313.924 55.162 314.143 55.162C314.582 55.162 314.582 54.9449 314.802 54.9449H315.461L315.241 58.6356Z" fill="#695E4A"/>
<path fill-rule="evenodd" clip-rule="evenodd" d="M333.905 51.6897C333.905 49.7358 333.685 48.6503 331.051 48.6503H329.733V47.7819C330.831 47.7819 333.246 47.5648 334.344 47.5648C336.32 47.3477 339.175 47.3477 339.833 47.3477C343.127 47.3477 345.981 47.7819 347.079 48.6503C348.616 49.7358 349.494 51.0384 349.494 52.5581C349.494 54.512 347.738 56.4659 345.322 57.1172C348.836 58.2027 350.812 60.3737 350.812 63.1961C350.812 66.0184 348.836 70.1433 342.907 70.1433H329.514V69.492H330.392C333.246 69.492 333.905 68.6236 333.905 66.6697V51.6897ZM336.759 57.3343H340.712C344.225 57.3343 345.981 56.0317 345.981 53.2094C345.981 50.6042 344.444 48.4332 339.833 48.4332C338.955 48.4332 337.418 48.6503 336.54 48.6503V57.3343H336.759ZM336.759 65.5842C336.759 68.4065 337.857 69.2749 340.931 69.2749C345.762 69.2749 347.079 66.4526 347.079 63.6303C347.079 60.8079 344.883 57.9856 340.712 57.9856H336.759V65.5842Z" fill="#695E4A"/>
<path fill-rule="evenodd" clip-rule="evenodd" d="M362.449 54.0781L367.499 67.5384C368.158 69.2752 368.377 69.4923 370.134 69.7094V70.3607H362.449V69.7094C363.766 69.7094 364.864 69.4923 364.864 68.6239C364.864 68.1897 364.645 67.3213 364.425 66.67L363.327 63.6306H358.058L357.179 65.8016C356.96 66.4529 356.521 67.5384 356.521 68.4068C356.521 69.4923 357.619 69.7094 359.156 69.7094V70.3607H352.788V69.7094C354.545 69.2752 354.764 68.6239 355.642 66.67L360.253 55.1636L359.814 54.0781H362.449ZM358.497 62.5451H363.108L360.912 56.6833L358.497 62.5451Z" fill="#695E4A"/>
<path fill-rule="evenodd" clip-rule="evenodd" d="M376.281 54.7256L387.04 66.6662V57.5479C387.04 56.4624 387.04 55.594 385.942 55.594C385.722 55.594 384.624 55.3769 384.185 55.3769V54.7256H390.772V55.3769C388.357 55.3769 388.137 56.0282 388.137 57.5479V70.574H387.259L375.403 57.5479V67.3175C375.403 69.7056 375.842 69.9227 378.477 69.9227V70.574H371.67V69.9227C374.085 70.1398 374.305 69.2714 374.305 67.9688V57.765C374.305 55.8111 373.207 55.8111 371.89 55.594V54.9427H376.281V54.7256Z" fill="#695E4A"/>
<path fill-rule="evenodd" clip-rule="evenodd" d="M410.534 54.7256V55.3769C407.899 55.594 407.679 55.594 406.142 57.765C403.727 61.0215 403.508 61.2386 402.19 62.3241C403.288 63.1925 403.727 63.6267 407.899 68.1859C408.997 69.4885 409.655 69.9227 411.412 69.9227V70.574H403.727V69.9227C404.825 69.9227 405.703 70.1398 405.703 69.4885C405.703 68.8372 403.068 66.232 402.41 65.3635C400.873 63.6267 400.214 63.1925 399.116 63.1925V68.1859C399.116 69.0543 399.116 69.9227 400.653 69.9227H401.532V70.574H393.847V69.9227C396.262 70.1398 396.481 69.2714 396.481 67.9688V57.3308C396.481 56.0282 396.481 55.594 393.847 55.594V54.9427H401.751V55.594C399.336 55.594 399.116 56.2453 399.116 57.765V62.5412C400.214 62.5412 401.092 62.3241 402.629 60.3702C403.727 59.0676 405.264 56.8966 405.264 56.2453C405.264 55.8111 404.825 55.8111 403.508 55.594V54.9427H410.534V54.7256Z" fill="#695E4A"/>
<path fill-rule="evenodd" clip-rule="evenodd" d="M179.989 66.8868C179.989 69.0578 180.867 69.7091 182.844 69.7091H183.722V70.3604H173.402V69.7091H174.061C176.257 69.7091 176.915 69.0578 176.915 66.6697V51.4726C176.915 49.3016 176.257 48.6503 174.061 48.6503H173.183V47.7819C174.061 47.7819 176.257 47.5648 177.794 47.5648C179.111 47.3477 179.989 47.3477 182.404 47.3477C188.991 47.3477 192.285 49.9529 192.285 53.6436C192.285 56.2488 190.309 58.6369 187.454 59.5053C187.454 59.5053 188.772 60.1566 189.431 61.2421C190.309 62.5448 191.846 65.3671 192.944 67.1039C194.92 69.9262 197.554 69.492 197.554 69.492V70.1433C195.578 70.3604 191.846 70.5775 189.65 67.5381C188.113 65.15 187.015 63.1961 186.357 62.1105C185.259 60.8079 184.161 60.5908 184.161 60.5908C183.283 60.5908 182.624 60.5908 181.746 60.5908C180.867 60.5908 180.428 60.5908 179.77 60.5908V66.8868H179.989ZM179.989 60.1566C180.867 60.3737 181.307 60.3737 182.404 60.3737C186.357 60.3737 188.991 58.6369 188.991 54.2949C188.991 50.8213 187.454 48.2161 181.746 48.2161C181.087 48.2161 180.648 48.2161 179.989 48.4332V60.1566Z" fill="#695E4A"/>
<path fill-rule="evenodd" clip-rule="evenodd" d="M86.6742 93.8084H81.8438V93.3742C83.1611 93.3742 83.3807 92.94 83.3807 91.6374V83.1704C83.3807 82.0849 82.9416 81.8678 81.8438 81.8678V81.4336H86.6742V81.8678C85.3568 81.8678 84.9177 82.0849 84.9177 83.6046V92.0716C84.9177 93.1571 85.1372 93.5913 86.6742 93.5913V93.8084Z" fill="#695E4A"/>
<path fill-rule="evenodd" clip-rule="evenodd" d="M93.0412 85.9891L92.8217 86.8575H90.1869V91.6337C90.1869 92.9363 91.0651 93.3705 91.5043 93.3705C91.9434 93.3705 92.3825 92.9363 92.8217 92.285L93.0412 92.5021C92.6021 93.5876 91.7238 94.2389 90.8456 94.2389C89.7477 94.2389 88.8695 93.3705 88.8695 91.8508V86.8575H87.9912V86.6404C88.8695 86.2062 89.3086 85.3378 89.9673 84.0352H90.4064V85.9891H93.0412Z" fill="#695E4A"/>
<path fill-rule="evenodd" clip-rule="evenodd" d="M95.0164 84.9023C95.8947 84.4681 96.5534 83.5997 96.5534 82.9484C96.5534 82.7313 96.3338 82.5142 96.1143 82.5142C95.8947 82.5142 95.8947 82.7312 95.6751 82.7312C95.236 82.7312 94.7969 82.2971 94.7969 81.8628C94.7969 81.4286 95.236 80.7773 95.8947 80.7773C96.773 80.7773 97.2121 81.6457 97.2121 82.5142C97.2121 83.8168 96.3338 84.9023 95.0164 85.3365V84.9023Z" fill="#695E4A"/>
<path fill-rule="evenodd" clip-rule="evenodd" d="M98.5309 91.8506C98.7505 92.9361 99.6288 93.5874 100.507 93.5874C101.385 93.5874 101.824 93.1532 101.824 92.2848C101.824 91.8506 101.605 91.6335 101.166 90.9822C99.8483 89.6796 98.0918 89.4625 98.0918 87.7257C98.0918 86.4231 99.1896 85.5547 100.727 85.5547C101.166 85.5547 101.824 85.7718 102.483 85.7718V87.7257H102.044C101.824 86.6402 101.166 85.9889 100.507 85.9889C99.8483 85.9889 99.1896 86.4231 99.1896 87.0744C99.1896 88.8112 103.142 89.0283 103.142 91.6335C103.142 92.9361 102.044 94.0216 100.507 94.0216C100.068 94.0216 99.8483 94.0216 99.6288 93.8045C99.4092 93.8045 99.1896 93.5874 99.1896 93.5874C99.1896 93.5874 98.9701 93.8045 98.7505 93.8045H98.5309L98.3114 91.6335H98.5309V91.8506Z" fill="#695E4A"/>
<path fill-rule="evenodd" clip-rule="evenodd" d="M110.168 88.3747C109.948 88.1576 109.948 88.1576 109.948 88.1576C109.948 87.2892 111.705 85.7695 112.802 85.7695C113.461 85.7695 114.339 85.9866 114.998 86.855C115.218 87.2892 115.218 87.5063 115.218 88.5918V91.1971C115.218 92.9339 115.218 93.151 115.657 93.151C115.876 93.151 116.096 93.151 116.755 92.7168L116.974 93.151C115.876 94.0194 115.218 94.2365 114.998 94.2365C114.12 94.2365 114.12 93.3681 114.12 93.151C112.802 94.2365 112.363 94.2365 111.705 94.2365C110.607 94.2365 109.729 93.5852 109.729 92.4997C109.729 91.4142 110.826 90.98 112.144 90.5458C112.583 90.3287 113.242 90.3287 113.9 89.6774V88.1576C113.9 87.5063 113.9 87.2892 113.461 86.855C113.242 86.4208 112.802 86.2037 112.363 86.2037C111.705 86.2037 111.046 86.855 111.046 87.2892C111.046 87.5063 111.265 87.5063 111.265 87.7234L110.168 88.3747ZM114.12 90.1116C113.681 90.3287 113.242 90.5458 112.802 90.7629C111.705 91.1971 111.046 91.4142 111.046 92.2826C111.046 92.9339 111.705 93.3681 112.144 93.3681C112.583 93.3681 112.802 93.151 113.9 92.4997V90.1116H114.12Z" fill="#695E4A"/>
<path fill-rule="evenodd" clip-rule="evenodd" d="M125.536 96.8462C125.536 97.9317 125.975 98.1488 126.853 98.1488H127.292V98.583H122.462V98.1488H122.681C123.779 98.1488 123.999 97.7146 123.999 96.6291V87.9451C123.999 87.5109 123.999 87.5109 123.56 87.2938L122.901 87.0767V86.6425L125.097 85.3398H125.536V87.2938C126.853 86.2083 127.951 85.774 128.61 85.774C130.147 85.774 131.464 87.5109 131.464 89.4648C131.464 91.8529 129.488 94.0239 127.292 94.0239C126.853 94.0239 126.195 93.8068 125.536 93.5897V96.8462ZM125.536 92.2871C126.414 92.9384 127.292 93.3726 127.951 93.3726C129.268 93.3726 130.366 92.07 130.366 90.3332C130.366 87.728 128.829 86.8596 127.732 86.8596C127.073 86.8596 126.414 87.2938 125.755 87.9451V92.2871H125.536Z" fill="#695E4A"/>
<path fill-rule="evenodd" clip-rule="evenodd" d="M136.076 92.5052C136.076 93.3736 136.296 93.5907 137.394 93.5907H138.272V94.0249H133.441V93.5907C134.539 93.5907 134.759 93.1565 134.759 92.2881V87.729L133.441 87.2948V86.8606L135.637 85.9922H136.076V88.1632C137.174 86.4264 137.394 86.2093 138.052 86.2093C138.272 86.2093 138.272 86.2093 138.711 86.4264C138.931 86.6435 139.37 86.6435 139.809 86.6435L139.37 87.9461C138.931 87.9461 138.491 87.729 138.272 87.5119C138.052 87.5119 137.833 87.2948 137.613 87.2948C137.174 87.2948 136.954 87.5119 136.735 87.729C136.515 88.1632 136.296 88.3803 136.076 88.8145V92.5052Z" fill="#695E4A"/>
<path fill-rule="evenodd" clip-rule="evenodd" d="M143.542 92.5012C143.542 93.1525 143.981 93.5867 144.859 93.5867V94.0209H140.248V93.5867C141.565 93.5867 142.005 93.1525 142.005 92.2841V88.3763C142.005 87.5078 141.785 87.5078 141.346 87.2907L140.468 87.0736V86.6394L143.102 85.771H143.542V92.5012ZM142.663 81.2119C143.102 81.2119 143.542 81.429 143.542 82.0803C143.542 82.5145 143.102 82.9487 142.663 82.9487C142.224 82.9487 141.785 82.5145 141.785 82.0803C141.565 81.429 142.005 81.2119 142.663 81.2119Z" fill="#695E4A"/>
<path fill-rule="evenodd" clip-rule="evenodd" d="M149.688 94.0194L146.834 87.5063C146.614 86.6379 146.395 86.6379 145.956 86.4208L145.517 86.2037V85.7695H149.688V86.2037C148.371 86.4208 147.932 86.4208 148.591 87.2892L150.567 92.2826L152.543 87.7234C152.982 86.855 152.762 86.4208 151.225 86.2037V85.7695H154.738V86.2037C153.86 86.4208 153.421 86.855 152.982 87.7234L150.347 94.0194H149.688Z" fill="#695E4A"/>
<path fill-rule="evenodd" clip-rule="evenodd" d="M158.472 92.5012C158.472 93.1525 158.911 93.5867 160.009 93.5867V94.0209H155.398V93.5867C156.716 93.5867 157.155 93.1525 157.155 92.2841V88.3763C157.155 87.5078 156.935 87.5078 156.496 87.2907L155.618 87.0736V86.6394L158.253 85.771H158.472V92.5012ZM157.594 81.2119C158.033 81.2119 158.472 81.429 158.472 82.0803C158.472 82.5145 158.033 82.9487 157.594 82.9487C157.155 82.9487 156.716 82.5145 156.716 82.0803C156.716 81.429 157.155 81.2119 157.594 81.2119Z" fill="#695E4A"/>
<path fill-rule="evenodd" clip-rule="evenodd" d="M163.961 92.2843C163.961 93.1527 164.4 93.3698 165.058 93.3698H165.498V93.804H160.887V93.3698C162.204 93.3698 162.643 92.9356 162.643 92.0672V82.5148C162.643 82.0806 162.643 81.8635 162.204 81.6464L161.326 81.4293V81.2122L163.961 80.3438H164.18V92.2843H163.961Z" fill="#695E4A"/>
<path fill-rule="evenodd" clip-rule="evenodd" d="M168.134 88.809C168.134 89.0261 168.134 89.2432 168.134 89.6774C168.134 91.8484 169.451 93.151 170.988 93.151C172.086 93.151 172.745 92.7168 173.623 91.8484L173.843 92.0655C172.964 93.151 171.866 94.0194 170.329 94.0194C168.353 94.0194 166.816 92.2826 166.816 89.8945C166.816 87.9405 168.134 85.7695 170.769 85.7695C173.403 85.7695 173.403 87.7234 174.062 88.3747V88.809H168.134ZM172.525 88.3747C172.306 87.0721 171.427 86.2037 170.549 86.2037C169.89 86.2037 168.793 86.4208 168.573 88.3747H172.525Z" fill="#695E4A"/>
<path fill-rule="evenodd" clip-rule="evenodd" d="M184.6 87.729C184.381 87.729 183.283 87.729 182.624 87.5119C182.844 87.729 183.063 88.1632 183.063 88.8145C183.063 90.3342 181.746 91.6368 179.55 91.6368C179.111 91.6368 179.111 91.6368 178.672 91.4197C178.452 91.8539 177.574 91.8539 177.574 92.5052C177.574 92.9394 178.452 93.1565 180.428 93.1565C182.844 93.3736 183.502 93.3736 184.161 94.0249C184.6 94.4592 184.6 95.1105 184.6 95.3276C184.6 96.6302 182.844 98.5841 179.111 98.5841C177.135 98.5841 176.037 97.7157 176.037 96.6302C176.037 95.5447 177.355 95.3276 178.233 94.2421C177.135 94.025 176.257 93.3736 176.257 92.9394C176.257 91.8539 177.574 91.8539 178.233 91.4197C177.135 90.9855 176.257 90.1171 176.257 89.0316C176.257 87.2948 177.794 85.9922 179.77 85.9922C180.648 85.9922 181.526 86.2093 181.965 86.8606C182.844 86.8606 183.722 86.6435 184.6 86.6435V87.729ZM179.331 86.2093C178.452 86.2093 177.355 86.6435 177.355 88.5974C177.355 89.6829 177.794 91.2026 179.331 91.2026C180.428 91.2026 181.307 90.3342 181.307 88.8145C181.526 87.0777 180.648 86.2093 179.331 86.2093ZM179.989 97.9328C181.746 97.9328 183.283 96.8473 183.283 95.5447C183.283 94.6763 182.624 94.4592 181.965 94.4592C181.526 94.2421 178.891 94.2421 178.233 94.2421C177.794 95.1105 176.915 95.3276 176.915 95.9789C176.915 96.8473 178.233 97.9328 179.989 97.9328Z" fill="#695E4A"/>
<path fill-rule="evenodd" clip-rule="evenodd" d="M187.015 88.809C187.015 89.0261 186.795 89.2432 186.795 89.6774C186.795 91.8484 188.332 93.151 189.869 93.151C190.967 93.151 191.626 92.7168 192.504 91.8484L192.723 92.0655C191.845 93.151 190.528 94.0194 189.21 94.0194C187.234 94.0194 185.697 92.2826 185.697 89.8945C185.697 87.9405 187.015 85.7695 189.649 85.7695C192.284 85.7695 192.284 87.7234 192.943 88.3747V88.809H187.015ZM191.186 88.3747C190.967 87.0721 190.089 86.2037 189.21 86.2037C188.552 86.2037 187.454 86.4208 187.015 88.3747H191.186Z" fill="#695E4A"/>
<path fill-rule="evenodd" clip-rule="evenodd" d="M204.801 85.9891L204.362 86.8575H201.727V91.6337C201.727 92.9363 202.605 93.3705 203.044 93.3705C203.483 93.3705 203.923 92.9363 204.142 92.285L204.581 92.5021C204.142 93.5876 203.264 94.2389 202.386 94.2389C201.068 94.2389 200.41 93.3705 200.41 91.8508V86.8575H199.531V86.6404C200.41 86.2062 200.849 85.3378 201.507 84.0352H201.727V85.9891H204.801Z" fill="#695E4A"/>
<path fill-rule="evenodd" clip-rule="evenodd" d="M210.29 85.7695C212.925 85.7695 214.681 87.5063 214.681 89.8945C214.681 92.2826 212.925 94.0194 210.509 94.0194C207.875 94.0194 206.118 92.2826 206.118 89.8945C206.118 87.2892 208.314 85.7695 210.29 85.7695ZM210.729 93.8023C211.827 93.8023 213.144 92.4997 213.144 90.5458C213.144 88.1576 211.827 86.4208 210.07 86.4208C208.753 86.4208 207.436 87.7234 207.436 89.4603C207.436 91.8484 208.973 93.8023 210.729 93.8023Z" fill="#695E4A"/>
<path fill-rule="evenodd" clip-rule="evenodd" d="M222.146 91.8506C222.366 92.9361 223.244 93.5874 224.122 93.5874C225.001 93.5874 225.44 93.1532 225.44 92.2848C225.44 91.8506 225.22 91.6335 224.781 90.9822C223.464 89.6796 221.707 89.4625 221.707 87.7257C221.707 86.4231 222.805 85.5547 224.342 85.5547C225.001 85.5547 225.44 85.7718 226.098 85.7718V87.7257H225.879C225.659 86.6402 225.001 85.9889 224.122 85.9889C223.464 85.9889 222.805 86.4231 222.805 87.0744C222.805 88.8112 226.757 89.0283 226.757 91.6335C226.757 92.9361 225.659 94.0216 224.122 94.0216C223.683 94.0216 223.464 94.0216 223.244 93.8045C223.024 93.8045 222.805 93.5874 222.805 93.5874C222.585 93.5874 222.585 93.8045 222.366 93.8045H222.146L221.927 91.6335H222.146V91.8506Z" fill="#695E4A"/>
<path fill-rule="evenodd" clip-rule="evenodd" d="M229.831 88.809C229.831 89.0261 229.612 89.2432 229.612 89.6774C229.612 91.8484 231.148 93.151 232.685 93.151C233.783 93.151 234.442 92.7168 235.32 91.8484L235.54 92.0655C234.662 93.151 233.564 94.0194 232.027 94.0194C230.051 94.0194 228.514 92.2826 228.514 89.8945C228.514 87.9405 229.831 85.7695 232.466 85.7695C235.101 85.7695 235.101 87.7234 235.759 88.3747V88.809H229.831ZM234.003 88.3747C233.783 87.0721 232.905 86.2037 232.027 86.2037C231.368 86.2037 230.27 86.4208 230.051 88.3747H234.003Z" fill="#695E4A"/>
<path fill-rule="evenodd" clip-rule="evenodd" d="M239.712 92.5052C239.712 93.3736 239.932 93.5907 241.029 93.5907H241.908V94.0249H237.077V93.5907C238.175 93.5907 238.395 93.1565 238.395 92.2881V87.729L237.077 87.2948V86.8606L239.492 85.9922H239.932V88.1632C241.029 86.4264 241.249 86.2093 241.908 86.2093C242.127 86.2093 242.127 86.2093 242.566 86.4264C242.786 86.6435 243.225 86.6435 243.664 86.6435L243.225 87.9461C242.786 87.9461 242.347 87.729 242.127 87.5119C241.908 87.5119 241.688 87.2948 241.468 87.2948C241.029 87.2948 240.81 87.5119 240.59 87.729C240.371 88.1632 240.151 88.3803 239.932 88.8145V92.5052H239.712Z" fill="#695E4A"/>
<path fill-rule="evenodd" clip-rule="evenodd" d="M248.493 94.0194L245.639 87.5063C245.419 86.6379 245.199 86.6379 244.76 86.4208L244.102 86.2037V85.7695H248.273V86.2037C247.175 86.4208 246.736 86.4208 247.175 87.2892L249.152 92.2826L251.128 87.7234C251.567 86.855 251.347 86.4208 249.81 86.2037V85.7695H253.323V86.2037C252.445 86.4208 252.006 86.855 251.567 87.7234L248.932 94.0194H248.493Z" fill="#695E4A"/>
<path fill-rule="evenodd" clip-rule="evenodd" d="M255.96 88.809C255.96 89.0261 255.74 89.2432 255.74 89.6774C255.74 91.8484 257.277 93.151 258.814 93.151C259.912 93.151 260.571 92.7168 261.449 91.8484L261.669 92.0655C260.79 93.151 259.473 94.0194 258.156 94.0194C256.18 94.0194 254.643 92.2826 254.643 89.8945C254.643 87.9405 255.96 85.7695 258.595 85.7695C261.23 85.7695 261.23 87.7234 261.888 88.3747V88.809H255.96ZM260.132 88.3747C259.912 87.0721 259.034 86.2037 258.156 86.2037C257.497 86.2037 256.399 86.4208 255.96 88.3747H260.132Z" fill="#695E4A"/>
<path fill-rule="evenodd" clip-rule="evenodd" d="M274.622 88.1576C275.281 86.6379 274.841 86.4208 273.524 86.2037V85.7695H277.037V86.2037C276.159 86.4208 275.72 86.855 275.281 87.9405L271.987 96.4075C271.328 97.9272 270.889 98.5785 270.231 98.5785C269.791 98.5785 269.352 98.3614 269.352 97.7101C269.352 96.8417 270.45 97.2759 271.109 96.6246C271.328 96.4075 271.548 95.7562 271.767 95.5391L272.426 94.0194L269.133 87.5063C268.694 86.6379 268.254 86.2037 267.596 86.2037V85.7695H271.548V86.2037C270.45 86.2037 270.231 86.6379 270.67 87.5063L273.085 92.2826L274.622 88.1576Z" fill="#695E4A"/>
<path fill-rule="evenodd" clip-rule="evenodd" d="M282.307 85.7695C284.942 85.7695 286.699 87.5063 286.699 89.8945C286.699 92.2826 284.942 94.0194 282.527 94.0194C279.892 94.0194 277.916 92.2826 277.916 89.8945C277.916 87.2892 280.112 85.7695 282.307 85.7695ZM282.746 93.8023C283.844 93.8023 285.162 92.4997 285.162 90.5458C285.162 88.1576 283.844 86.4208 282.088 86.4208C280.77 86.4208 279.453 87.7234 279.453 89.4603C279.453 91.8484 280.77 93.8023 282.746 93.8023Z" fill="#695E4A"/>
<path fill-rule="evenodd" clip-rule="evenodd" d="M297.896 93.3736L295.262 94.242V92.7223C293.725 93.8078 292.627 94.242 291.749 94.242C290.651 94.242 289.772 93.5907 289.772 92.2881V87.9461C289.772 87.5119 289.553 87.0777 289.114 87.0777L288.455 86.8606V86.4264L291.09 85.9922V91.6368C291.09 92.7223 291.968 93.3736 292.846 93.3736C293.725 93.3736 294.383 92.9394 295.262 92.2881V88.1632C295.262 87.2948 295.042 87.0777 294.383 87.0777L293.286 86.8606V86.6435L296.359 86.2093V92.9394C296.359 93.3736 296.579 93.5907 297.457 93.3736L297.896 93.1565V93.3736Z" fill="#695E4A"/>
<path fill-rule="evenodd" clip-rule="evenodd" d="M300.311 85.1243H300.969C300.969 85.5585 301.189 85.7756 301.189 85.9927C301.408 86.4269 301.848 86.644 302.506 86.644C302.726 86.644 302.945 86.4269 303.384 86.4269C303.824 86.2098 304.043 85.9927 304.043 85.5585C304.043 85.3414 304.043 85.1243 303.824 84.9072C303.604 84.6901 303.384 84.6901 302.945 84.6901L302.067 84.473C301.628 84.473 301.189 84.2559 300.969 84.2559C300.53 84.0388 300.53 83.6046 300.53 83.1704C300.53 82.7362 300.75 82.0849 300.969 81.8678C301.408 81.6507 301.847 81.4336 302.287 81.4336C302.945 81.4336 303.384 81.6507 303.824 81.8678C304.263 82.0849 304.482 82.5191 304.482 83.1704H303.604C303.604 82.9533 303.384 82.7362 303.384 82.5191C303.165 82.0849 302.945 82.0849 302.287 82.0849C301.847 82.0849 301.408 82.302 301.408 82.5191C301.189 82.7362 301.189 82.9533 301.189 83.1704C301.189 83.3875 301.189 83.6046 301.408 83.6046C301.628 83.8217 301.848 83.8217 302.506 83.8217L303.384 84.0388C303.824 84.2559 304.043 84.2559 304.263 84.473C304.702 84.6901 304.702 84.9072 304.702 85.5585C304.702 86.2098 304.482 86.644 304.043 86.8611C303.604 87.0782 302.945 87.2953 302.506 87.2953C301.628 87.2953 301.189 87.0782 300.75 86.8611C300.311 86.4269 300.311 85.7756 300.311 85.1243Z" fill="#695E4A"/>
<path fill-rule="evenodd" clip-rule="evenodd" d="M305.581 87.076V81.6484H306.679L308.216 86.4247L309.753 81.6484H310.851V87.076H310.192V83.8194C310.192 83.6023 310.192 83.6024 310.192 83.3853C310.192 83.1682 310.192 82.7339 310.192 82.5168L308.655 87.076H307.777L306.24 82.5168C306.24 82.7339 306.24 82.951 306.24 83.1681C306.24 83.3852 306.24 83.6023 306.24 83.8194V87.076H305.581Z" fill="#695E4A"/>
<path fill-rule="evenodd" clip-rule="evenodd" d="M46.9321 56.0309C46.9321 56.0309 47.1517 55.8138 47.1517 55.5967C47.1517 55.1625 46.7126 55.3796 46.0539 54.9454C45.8343 54.9454 45.8343 54.7283 45.6147 54.7283C44.956 54.077 45.1756 53.4257 44.956 52.7744C44.5169 51.906 44.5169 51.906 44.5169 51.906C44.5169 51.906 45.3952 52.3402 46.9321 53.2086C48.6887 54.2941 48.03 55.8138 48.03 55.8138C48.03 55.8138 48.9082 56.248 49.3474 55.5967C49.5669 55.1625 49.7865 54.7283 50.2256 54.2941C50.8843 52.9915 50.6648 51.4718 50.6648 51.4718C50.6648 51.4718 50.4452 51.0376 50.2256 50.1692C49.7865 49.3008 49.1278 48.6495 49.1278 48.6495C47.1517 46.9126 44.2973 47.3468 41.8821 46.4784C40.5647 45.8271 39.4669 45.1758 39.4669 45.1758C39.4669 45.1758 38.8082 44.7416 38.369 44.5245C37.9299 44.3074 37.4908 44.3074 37.4908 44.3074C37.4908 44.3074 36.6125 44.0903 35.5147 44.3074C34.856 44.5245 34.1973 45.1758 34.1973 45.1758C34.1973 45.1758 35.2951 44.9587 35.9538 45.61C36.3929 46.2613 36.6125 46.6955 36.8321 47.3468C37.2712 47.9982 37.7103 48.2153 37.7103 48.2153C37.7103 48.2153 37.0516 48.4324 36.3929 49.0837C35.2951 49.9521 35.0755 50.8205 35.0755 50.8205C35.0755 50.8205 36.1734 50.1692 37.2712 50.8205C38.1495 51.2547 38.5886 51.2547 38.5886 51.2547C38.5886 51.2547 37.4908 51.906 36.6125 52.9915C35.7342 53.8599 36.1734 54.7283 36.1734 54.7283C36.1734 54.7283 36.3929 54.2941 36.8321 54.2941C37.2712 54.077 37.9299 54.2941 37.9299 54.2941C37.9299 54.2941 37.2712 54.5112 36.8321 55.5967C36.3929 56.4651 35.5147 56.6822 35.5147 56.6822C35.5147 56.6822 35.7342 57.1164 36.6125 57.1164C37.4908 57.3335 38.1495 56.6822 38.5886 56.4651C39.0277 56.0309 39.6864 56.0309 39.6864 56.0309C39.0277 57.9848 40.1256 58.6361 40.1256 58.6361C40.1256 58.6361 40.3451 57.7677 41.2234 56.8993C42.3212 55.8138 43.8582 55.8138 43.8582 55.8138C43.8582 55.8138 44.5169 55.5967 45.6147 56.0309C46.493 55.3796 46.9321 56.0309 46.9321 56.0309Z" fill="#695E4A"/>
<path fill-rule="evenodd" clip-rule="evenodd" d="M45.6137 54.7273C44.955 54.076 45.1745 53.4247 44.7354 52.5562C44.5158 51.6878 44.5158 51.9049 44.5158 51.9049C44.5158 51.9049 45.3941 52.3391 46.9311 53.2076C48.6876 54.2931 48.0289 55.8128 48.0289 55.8128C48.0289 55.8128 48.0289 56.0299 48.468 56.0299C48.9072 56.247 49.1267 55.8128 48.9072 56.0299C49.1267 56.247 49.1267 56.4641 49.1267 56.4641C49.1267 56.4641 49.5659 58.418 48.2485 59.2864C47.1506 59.9377 45.6137 59.7206 45.6137 59.7206C45.6137 59.7206 46.9311 59.5035 47.1506 57.9838C47.3702 57.1154 46.7115 56.247 46.7115 56.247C46.7115 56.247 46.9311 56.0299 46.9311 55.8128C46.9311 55.1615 46.2724 55.3786 45.6137 54.7273ZM14.4352 35.1881C14.8744 35.8394 15.0939 36.2736 15.0939 36.2736C14.6548 36.7079 14.6548 37.5763 15.0939 38.2276C15.5331 39.096 15.7526 39.7473 15.7526 39.7473C15.7526 39.7473 15.3135 40.1815 15.5331 40.8328C15.7526 41.9183 16.1918 43.0038 17.2896 44.0893C18.607 45.609 19.0461 46.4774 19.0461 46.4774C19.0461 46.4774 18.607 47.1287 19.2657 47.9971C19.9244 49.0826 21.6809 49.7339 22.1201 50.6023C22.3396 51.6878 23.8766 51.6878 24.0962 52.3391C24.3157 53.2076 25.194 53.6418 25.6331 54.076C26.0723 54.076 26.5114 54.2931 26.5114 54.7273C26.731 55.5957 28.4875 55.8128 29.3658 56.4641C29.3658 56.4641 25.194 57.9838 21.6809 59.5035C17.7287 61.0232 15.7526 58.6351 15.7526 58.6351C15.7526 58.6351 16.4113 62.76 20.3635 63.4113C22.3396 63.8455 24.3157 63.4113 24.3157 63.4113C24.3157 63.4113 23.2179 64.4968 21.6809 65.3652C19.9244 66.2336 19.0461 65.7994 19.0461 65.7994C19.0461 65.7994 19.9244 67.3191 22.7788 66.6678C24.0962 66.4507 25.194 65.5823 25.194 65.5823C25.194 65.5823 25.194 66.4507 23.8766 67.102C22.7788 67.9704 22.1201 67.9704 22.1201 67.9704C22.1201 67.9704 22.9983 68.1875 24.0962 68.8388C24.9744 69.273 26.0723 69.7072 27.3897 69.7072C28.4875 69.4902 29.8049 68.6217 29.8049 68.6217C29.8049 68.6217 29.5853 69.273 29.5853 69.4902C29.5853 70.1415 29.8049 70.3586 29.8049 70.3586C29.8049 70.3586 30.0245 68.6217 33.7571 69.9244C37.7093 71.227 39.4658 70.3586 39.4658 70.3586C39.4658 70.3586 38.8071 69.9244 38.368 69.4902C38.1484 69.0559 38.1484 68.6217 38.1484 68.6217C38.1484 68.6217 39.2463 69.7073 42.5397 68.8388C44.955 68.4046 46.7115 66.4507 46.7115 66.4507C46.7115 66.4507 43.8571 66.0165 42.1006 61.6745C41.0028 59.0693 41.4419 57.5496 42.1006 56.6812C42.7593 55.5957 43.8571 55.1615 43.8571 55.1615C43.8571 55.1615 42.3202 55.1615 41.2224 56.247C40.3441 57.1154 40.1245 57.7667 40.1245 57.7667C40.1245 57.7667 39.0267 57.1154 39.4658 55.1615C39.4658 55.1615 39.0267 55.1615 38.368 55.5957C38.1484 56.0299 37.4897 56.4641 36.6115 56.4641C35.7332 56.247 35.5136 56.0299 35.5136 56.0299C35.5136 56.0299 36.3919 55.8128 36.831 54.9444C37.2702 53.8589 37.9289 53.6418 37.9289 53.6418C37.9289 53.6418 37.4897 53.4247 36.831 53.6418C36.3919 53.8589 35.9528 54.076 35.9528 54.076C35.9528 54.076 35.7332 53.4247 36.3919 52.5562C37.2702 51.4707 38.368 50.8194 38.368 50.8194C38.368 50.8194 37.7093 50.6023 36.831 50.1681C35.7332 49.5168 34.6354 50.1681 34.6354 50.1681C34.6354 50.1681 35.0745 49.2997 36.1723 48.6484C37.0506 47.9971 37.4897 47.78 37.4897 47.78C37.4897 47.78 37.0506 47.78 36.6115 47.1287C36.3919 46.4774 36.1723 45.8261 35.7332 45.3919C35.0745 44.5235 33.9767 44.7406 33.9767 44.7406C33.9767 44.7406 34.6354 44.3064 35.2941 44.0893C36.3919 43.6551 37.2702 43.8722 37.2702 43.8722C37.2702 43.8722 33.9767 40.1815 32.2201 34.971C32.0006 34.5368 31.781 34.1026 31.781 33.6684C29.1462 23.8989 28.2679 23.4647 28.2679 23.4647C27.6092 23.4647 27.6092 24.3331 27.6092 24.3331C27.6092 24.3331 26.731 23.6818 23.8766 18.6884C22.7788 16.5174 21.6809 13.0438 21.4614 13.0438C21.2418 13.2609 20.8027 13.6951 20.8027 14.7806C20.8027 15.4319 20.8027 16.5174 20.8027 16.5174C20.8027 16.5174 19.0461 14.3464 17.5092 10.6557C16.4113 8.05047 15.7526 4.57685 15.3135 4.79395C14.6548 5.01105 13.9961 5.87946 14.2157 7.18207C14.4352 8.48467 15.5331 12.1754 15.5331 12.1754C15.5331 12.1754 13.7765 10.4386 12.4591 8.05047C11.1417 5.87946 10.0439 2.18874 9.60478 2.18874C8.94608 2.40584 8.28738 4.14265 10.0439 8.26757C10.9222 10.6557 11.8004 12.1754 11.8004 12.1754C11.8004 12.1754 9.38521 11.307 7.84825 6.96497C6.09172 2.62294 5.87215 0.0177226 5.87215 0.0177226C5.87215 0.0177226 5.43302 -0.199379 4.99389 0.886128C4.55475 1.75453 4.55475 4.35975 5.65259 7.39917C6.75042 10.6557 7.62868 11.7412 7.62868 11.7412C7.62868 11.7412 5.87215 11.0899 4.77432 9.13598C3.23735 7.18207 2.35909 3.92555 2.35909 3.92555C2.35909 3.92555 2.13952 4.14265 1.91996 4.57685C1.70039 5.01105 1.26126 6.74786 2.35909 9.57018C2.79822 11.0899 4.11562 12.8267 4.11562 12.8267C4.11562 12.8267 3.01779 12.3925 2.35909 11.5241C1.70039 11.0899 1.04169 10.0044 1.04169 10.0044C0.163424 10.2215 0.822123 12.6096 1.70039 13.9122C2.13952 15.649 3.01779 16.3003 4.11562 17.3858C5.21345 18.6884 5.21345 19.3397 5.21345 19.3397C4.77432 19.991 6.53085 21.7279 7.18955 22.1621C8.28738 23.0305 8.50695 23.2476 8.50695 23.2476C8.50695 23.2476 7.62868 23.6818 9.60478 25.4186C10.2635 25.8528 10.483 26.0699 10.483 26.0699C10.483 26.0699 8.94608 26.5041 12.4591 29.3264C13.3374 29.9777 13.557 30.4119 13.557 30.4119C12.8983 31.0632 13.1178 31.4974 13.7765 32.3658C13.9961 32.8 14.2157 33.4513 14.2157 33.4513C14.2157 33.4513 13.557 33.6684 14.2157 34.7539C14.2157 34.7539 14.4352 34.971 14.4352 35.1881ZM41.6615 46.4774C44.0767 47.3458 47.1506 46.9116 48.9072 48.8655C48.9072 48.8655 48.6876 48.4313 48.6876 47.78C48.468 46.4774 48.9072 46.2603 50.2246 44.0893C52.8594 40.6157 61.642 31.4974 62.9594 28.2409C63.6181 26.9383 64.2768 24.3331 64.9355 22.1621C65.8138 19.1226 66.2529 16.3003 66.2529 16.3003C65.3747 15.8661 64.716 17.6029 64.0573 19.5568C63.8377 20.4252 63.6181 20.8595 63.6181 20.8595C63.6181 20.8595 63.3986 19.991 64.0573 17.3858C64.4964 15.2148 64.9355 14.5635 64.9355 14.5635C64.4964 14.1293 63.179 14.7806 62.5203 17.1687C62.0812 18.4713 61.642 19.7739 61.642 19.7739C61.642 19.7739 61.4225 19.7739 61.4225 18.6884C61.2029 17.6029 61.642 16.9516 61.642 16.9516C61.642 16.9516 60.7638 16.9516 59.8855 18.6884C59.4464 19.5568 59.2268 21.0766 59.2268 21.0766C59.0072 20.6423 59.0072 19.5568 59.0072 19.5568C58.5681 19.5568 57.9094 20.4252 57.6898 21.5108C57.2507 22.3792 57.2507 23.6818 57.2507 23.6818C56.8116 23.4647 56.8116 22.8134 56.8116 22.8134C56.8116 22.8134 55.9333 23.2476 55.4942 25.2015C55.4942 26.0699 55.4942 26.7212 55.4942 26.7212C55.055 26.5041 55.055 25.8528 55.055 25.8528C54.3963 26.0699 53.7376 27.1554 53.2985 29.1093C53.2985 29.1093 52.6398 28.8922 52.2007 29.5435C51.7615 30.1948 51.3224 31.7145 50.6637 32.1487C50.2246 31.9316 49.7854 32.3658 49.5659 32.5829C49.1267 33.2342 48.6876 34.1026 48.2485 34.5368C48.0289 34.3197 47.3702 34.5368 47.1506 34.7539C46.7115 35.1881 46.2724 36.2736 45.8332 36.4907C45.6137 36.2736 44.955 36.4907 44.7354 36.7078C44.5158 36.9249 44.5158 37.5763 44.0767 38.0105C43.6376 37.7934 43.418 38.0105 43.1984 38.4447C42.7593 38.8789 42.7593 39.3131 42.3202 39.7473C41.8811 39.5302 41.4419 39.9644 41.2224 40.1815C41.0028 40.3986 40.7832 41.0499 40.5637 41.4841C39.4658 41.7012 39.0267 44.9577 39.0267 44.9577C39.0267 44.9577 40.1245 45.8261 41.6615 46.4774Z" fill="#695E4A"/>
</svg>
