<svg width="213" height="83" viewBox="0 0 213 83" fill="none" xmlns="http://www.w3.org/2000/svg">
<path d="M15.4016 1.15039H0V16.552H15.4016V1.15039Z" fill="#695E4A"/>
<path d="M15.0179 81.3926V25.9251H0.438477V81.3926H15.0179ZM111.922 81.9407V68.3479C109.784 68.3479 107.975 68.2382 106.66 68.019C105.125 67.7998 103.974 67.2517 103.207 66.4843C102.44 65.717 101.946 64.6208 101.672 63.1957C101.453 61.8255 101.343 60.0168 101.343 57.8244V38.4217H111.922V25.9251H101.343V4.27517H86.7092V57.934C86.7092 62.4832 87.0928 66.3199 87.8602 69.3892C88.6275 72.4038 89.9429 74.8702 91.7517 76.7338C93.5604 78.5973 95.972 79.9127 98.8769 80.7349C101.837 81.557 105.564 81.9407 110.003 81.9407H111.922ZM195.671 81.3926V0H181.037V81.3926H195.671ZM72.623 31.3512C68.5671 26.9664 62.8669 24.774 55.632 24.774C52.1241 24.774 48.9452 25.4866 46.0403 26.9116C43.1901 28.3367 40.7237 30.3098 38.8054 32.8311L37.9832 33.8725V32.9407V25.9251H23.5682V81.3926H38.0928V51.8501V53.8781C38.0928 53.5492 38.0928 53.2203 38.0928 52.8915C38.2573 47.6846 39.5179 43.8479 41.9295 41.3814C44.5056 38.7506 47.6297 37.4351 51.1924 37.4351C55.4127 37.4351 58.6465 38.7506 60.7841 41.2718C62.8669 43.7931 63.9631 47.3557 63.9631 51.9049V52.0145V81.3378H78.7069V49.8769C78.7617 41.9843 76.679 35.736 72.623 31.3512ZM173.473 53.5492C173.473 49.5481 172.761 45.821 171.39 42.3132C169.965 38.8602 167.992 35.7908 165.526 33.16C163.004 30.5291 159.99 28.5011 156.482 27.0212C152.974 25.5414 149.083 24.8289 144.862 24.8289C140.861 24.8289 137.079 25.5962 133.572 27.0761C130.064 28.6107 126.994 30.6387 124.418 33.2148C121.842 35.7908 119.759 38.8602 118.28 42.368C116.745 45.8758 116.032 49.6577 116.032 53.6588C116.032 57.6599 116.745 61.4418 118.17 64.9497C119.595 68.4575 121.623 71.5268 124.144 74.1029C126.666 76.679 129.79 78.7617 133.407 80.2416C137.025 81.7763 141.026 82.5436 145.301 82.5436C157.688 82.5436 165.361 76.8982 169.965 71.6365L159.442 63.6342C157.249 66.2651 151.988 69.8277 145.41 69.8277C141.3 69.8277 137.902 68.896 135.325 66.9776C132.749 65.1141 130.995 62.4832 130.064 59.2494L129.899 58.7561H173.473V53.5492ZM130.009 48.4519C130.009 44.396 134.668 37.3255 144.698 37.2707C154.728 37.2707 159.442 44.3412 159.442 48.3971L130.009 48.4519Z" fill="#695E4A"/>
<path d="M212.333 74.1587C212.059 73.501 211.675 72.9529 211.182 72.4596C210.688 71.9663 210.14 71.5826 209.482 71.3086C208.825 71.0345 208.112 70.8701 207.4 70.8701C206.632 70.8701 205.975 71.0345 205.317 71.3086C204.659 71.5826 204.111 71.9663 203.618 72.4596C203.125 72.9529 202.741 73.501 202.467 74.1587C202.193 74.8164 202.028 75.529 202.028 76.2415C202.028 77.0088 202.193 77.6665 202.467 78.3242C202.741 78.982 203.125 79.5301 203.618 80.0234C204.111 80.5166 204.659 80.9003 205.317 81.1744C205.975 81.4484 206.687 81.6128 207.4 81.6128C208.167 81.6128 208.825 81.4484 209.482 81.1744C210.14 80.9003 210.688 80.5166 211.182 80.0234C211.675 79.5301 212.059 78.982 212.333 78.3242C212.607 77.6665 212.771 76.954 212.771 76.2415C212.771 75.529 212.607 74.8164 212.333 74.1587ZM211.456 77.9954C211.236 78.5435 210.908 79.0368 210.524 79.4204C210.14 79.8041 209.647 80.133 209.099 80.3522C208.551 80.5715 208.003 80.6811 207.345 80.6811C206.742 80.6811 206.139 80.5715 205.591 80.3522C205.043 80.133 204.55 79.8041 204.166 79.4204C203.782 79.0368 203.453 78.5435 203.234 77.9954C203.015 77.4473 202.905 76.8992 202.905 76.2415C202.905 75.6386 203.015 75.0357 203.234 74.4876C203.453 73.9395 203.782 73.4462 204.166 73.0625C204.55 72.6788 205.043 72.35 205.591 72.1307C206.139 71.9115 206.687 71.8019 207.345 71.8019C207.948 71.8019 208.551 71.9115 209.099 72.1307C209.647 72.35 210.14 72.6788 210.524 73.0625C210.908 73.4462 211.236 73.9395 211.456 74.4876C211.675 75.0357 211.784 75.5838 211.784 76.2415C211.839 76.8992 211.675 77.4473 211.456 77.9954ZM208.386 76.68C208.825 76.6251 209.154 76.4607 209.428 76.1867C209.702 75.9126 209.866 75.529 209.866 74.9809C209.866 74.3779 209.702 73.9395 209.318 73.6106C208.989 73.2817 208.386 73.1173 207.674 73.1173H205.262V79.3108H206.413V76.7896H207.235L208.77 79.3108H209.976L208.386 76.68ZM207.783 75.803C207.619 75.803 207.454 75.803 207.235 75.803H206.413V74.0491H207.235C207.4 74.0491 207.564 74.0491 207.783 74.0491C207.948 74.0491 208.112 74.1039 208.277 74.1587C208.441 74.2135 208.551 74.3231 208.606 74.4328C208.66 74.5424 208.715 74.7068 208.715 74.926C208.715 75.1453 208.66 75.3097 208.606 75.4193C208.496 75.529 208.386 75.6386 208.277 75.6934C208.112 75.7482 207.948 75.803 207.783 75.803Z" fill="#695E4A"/>
</svg>
