<svg width="212" height="82" viewBox="0 0 212 82" fill="none" xmlns="http://www.w3.org/2000/svg">
<path d="M35.8715 17H47.4405V13.78H39.4135V0.899999H35.8715V17ZM50.2727 17H53.8147V0.899999H50.2727V17ZM63.5653 17.23C67.0383 17.23 69.4763 15.436 69.4763 12.239V12.193C69.4763 9.387 67.6363 8.214 64.3703 7.363C61.5873 6.65 60.8973 6.305 60.8973 5.247V5.201C60.8973 4.419 61.6103 3.798 62.9673 3.798C64.3243 3.798 65.7273 4.396 67.1533 5.385L68.9933 2.717C67.3603 1.406 65.3593 0.669999 63.0133 0.669999C59.7243 0.669999 57.3783 2.602 57.3783 5.523V5.569C57.3783 8.766 59.4713 9.663 62.7143 10.491C65.4053 11.181 65.9573 11.641 65.9573 12.538V12.584C65.9573 13.527 65.0833 14.102 63.6343 14.102C61.7943 14.102 60.2763 13.343 58.8273 12.147L56.7343 14.654C58.6663 16.379 61.1273 17.23 63.5653 17.23ZM70.8333 17H74.4443L75.9163 13.389H82.7243L84.1963 17H87.8993L80.9993 0.784999H77.7333L70.8333 17ZM77.1813 10.261L79.3203 5.04L81.4593 10.261H77.1813ZM103.007 17.23C106.48 17.23 108.918 15.436 108.918 12.239V12.193C108.918 9.387 107.078 8.214 103.812 7.363C101.029 6.65 100.339 6.305 100.339 5.247V5.201C100.339 4.419 101.052 3.798 102.409 3.798C103.766 3.798 105.169 4.396 106.595 5.385L108.435 2.717C106.802 1.406 104.801 0.669999 102.455 0.669999C99.1657 0.669999 96.8197 2.602 96.8197 5.523V5.569C96.8197 8.766 98.9127 9.663 102.156 10.491C104.847 11.181 105.399 11.641 105.399 12.538V12.584C105.399 13.527 104.525 14.102 103.076 14.102C101.236 14.102 99.7177 13.343 98.2687 12.147L96.1757 14.654C98.1077 16.379 100.569 17.23 103.007 17.23ZM115.404 17H118.946V4.166H123.845V0.899999H110.505V4.166H115.404V17ZM133.692 17.276C138.66 17.276 142.271 13.527 142.271 8.95V8.904C142.271 4.327 138.706 0.624 133.738 0.624C128.77 0.624 125.159 4.373 125.159 8.95V8.996C125.159 13.573 128.724 17.276 133.692 17.276ZM133.738 14.01C130.886 14.01 128.862 11.71 128.862 8.95V8.904C128.862 6.144 130.84 3.89 133.692 3.89C136.544 3.89 138.568 6.19 138.568 8.95V8.996C138.568 11.756 136.59 14.01 133.738 14.01ZM145.413 17H148.909V6.765L156.706 17H159.719V0.899999H156.223V10.813L148.679 0.899999H145.413V17ZM163.584 17H175.843V13.849H167.103V10.468H174.693V7.317H167.103V4.051H175.728V0.899999H163.584V17ZM0.80993 49H4.35193V44.17H7.04293C10.6539 44.17 13.5519 42.238 13.5519 38.512V38.466C13.5519 35.177 11.2289 32.9 7.38793 32.9H0.80993V49ZM4.35193 41.019V36.097H7.08893C8.85993 36.097 9.96393 36.948 9.96393 38.535V38.581C9.96393 39.961 8.92893 41.019 7.15793 41.019H4.35193ZM16.1732 49H19.7152V43.848H22.4982L25.9482 49H30.0882L26.1552 43.25C28.2022 42.491 29.6052 40.858 29.6052 38.259V38.213C29.6052 36.695 29.1222 35.43 28.2252 34.533C27.1672 33.475 25.5802 32.9 23.5332 32.9H16.1732V49ZM19.7152 40.72V36.097H23.2342C24.9592 36.097 26.0172 36.879 26.0172 38.397V38.443C26.0172 39.8 25.0282 40.72 23.3032 40.72H19.7152ZM32.9553 49H36.4973V32.9H32.9553V49ZM44.2699 49H47.8119V36.166H52.7109V32.9H39.3709V36.166H44.2699V49ZM54.7273 49H68.1363V45.895H59.2813L68.1363 35.591V32.9H55.0033V36.005H63.5823L54.7273 46.309V49ZM71.4945 49H75.0365V44.078L76.8995 42.146L81.8905 49H86.1455L79.2915 39.731L85.8465 32.9H81.5685L75.0365 39.938V32.9H71.4945V49ZM88.2953 49H100.554V45.849H91.8143V42.468H99.4043V39.317H91.8143V36.051H100.439V32.9H88.2953V49ZM103.703 49H107.245V43.848H110.028L113.478 49H117.618L113.685 43.25C115.732 42.491 117.135 40.858 117.135 38.259V38.213C117.135 36.695 116.652 35.43 115.755 34.533C114.697 33.475 113.11 32.9 111.063 32.9H103.703V49ZM107.245 40.72V36.097H110.764C112.489 36.097 113.547 36.879 113.547 38.397V38.443C113.547 39.8 112.558 40.72 110.833 40.72H107.245ZM127.22 49H130.762V42.767H138.444V39.547H130.762V36.12H139.479V32.9H127.22V49ZM139.092 49H142.703L144.175 45.389H150.983L152.455 49H156.158L149.258 32.785H145.992L139.092 49ZM145.44 42.261L147.579 37.04L149.718 42.261H145.44ZM158.643 49H162.116V38.558L166.601 45.366H166.693L171.224 38.489V49H174.743V32.9H170.925L166.693 39.708L162.461 32.9H158.643V49ZM178.772 49H182.314V32.9H178.772V49ZM186.337 49H197.906V45.78H189.879V32.9H186.337V49ZM202.121 49H205.663V42.583L211.85 32.9H207.825L203.915 39.363L200.074 32.9H195.934L202.121 42.652V49ZM25.6854 81H29.2274V74.767H36.9094V71.547H29.2274V68.12H37.9444V64.9H25.6854V81ZM48.5992 81.276C53.5672 81.276 57.1782 77.527 57.1782 72.95V72.904C57.1782 68.327 53.6132 64.624 48.6452 64.624C43.6772 64.624 40.0662 68.373 40.0662 72.95V72.996C40.0662 77.573 43.6312 81.276 48.5992 81.276ZM48.6452 78.01C45.7932 78.01 43.7692 75.71 43.7692 72.95V72.904C43.7692 70.144 45.7472 67.89 48.5992 67.89C51.4512 67.89 53.4752 70.19 53.4752 72.95V72.996C53.4752 75.756 51.4972 78.01 48.6452 78.01ZM67.0362 81.253C71.3602 81.253 74.0972 78.861 74.0972 73.985V64.9H70.5552V74.123C70.5552 76.676 69.2442 77.987 67.0822 77.987C64.9202 77.987 63.6092 76.63 63.6092 74.008V64.9H60.0672V74.1C60.0672 78.838 62.7122 81.253 67.0362 81.253ZM77.7049 81H81.2009V70.765L88.998 81H92.0109V64.9H88.5149V74.813L80.9709 64.9H77.7049V81ZM95.8758 81H102.155C107.215 81 110.711 77.481 110.711 72.95V72.904C110.711 68.373 107.215 64.9 102.155 64.9H95.8758V81ZM102.155 68.097C105.053 68.097 107.008 70.098 107.008 72.95V72.996C107.008 75.848 105.053 77.803 102.155 77.803H99.4178V68.097H102.155ZM111.342 81H114.953L116.425 77.389H123.233L124.705 81H128.408L121.508 64.785H118.242L111.342 81ZM117.69 74.261L119.829 69.04L121.968 74.261H117.69ZM132.575 81H136.117V68.166H141.016V64.9H127.676V68.166H132.575V81ZM143.901 81H147.443V64.9H143.901V81ZM159.287 81.276C164.255 81.276 167.866 77.527 167.866 72.95V72.904C167.866 68.327 164.301 64.624 159.333 64.624C154.365 64.624 150.754 68.373 150.754 72.95V72.996C150.754 77.573 154.319 81.276 159.287 81.276ZM159.333 78.01C156.481 78.01 154.457 75.71 154.457 72.95V72.904C154.457 70.144 156.435 67.89 159.287 67.89C162.139 67.89 164.163 70.19 164.163 72.95V72.996C164.163 75.756 162.185 78.01 159.333 78.01ZM171.008 81H174.504V70.765L182.301 81H185.314V64.9H181.818V74.813L174.274 64.9H171.008V81Z" fill="#695E4A"/>
</svg>
