<svg width="234" height="50" viewBox="0 0 234 50" fill="none" xmlns="http://www.w3.org/2000/svg">
<path d="M17.661 17H21.203V12.17H23.894C27.505 12.17 30.403 10.238 30.403 6.512V6.466C30.403 3.177 28.08 0.899999 24.239 0.899999H17.661V17ZM21.203 9.019V4.097H23.94C25.711 4.097 26.815 4.948 26.815 6.535V6.581C26.815 7.961 25.78 9.019 24.009 9.019H21.203ZM30.0271 17H33.6381L35.1101 13.389H41.9181L43.3901 17H47.0931L40.1931 0.784999H36.9271L30.0271 17ZM36.3751 10.261L38.5141 5.04L40.6531 10.261H36.3751ZM49.578 17H53.051V6.558L57.536 13.366H57.628L62.159 6.489V17H65.678V0.899999H61.86L57.628 7.708L53.396 0.899999H49.578V17ZM75.0613 17H78.6723L80.1443 13.389H86.9523L88.4243 17H92.1273L85.2273 0.784999H81.9613L75.0613 17ZM81.4093 10.261L83.5483 5.04L85.6873 10.261H81.4093ZM94.6122 17H98.1082V6.765L105.905 17H108.918V0.899999H105.422V10.813L97.8782 0.899999H94.6122V17ZM112.783 17H119.062C124.122 17 127.618 13.481 127.618 8.95V8.904C127.618 4.373 124.122 0.899999 119.062 0.899999H112.783V17ZM119.062 4.097C121.96 4.097 123.915 6.098 123.915 8.95V8.996C123.915 11.848 121.96 13.803 119.062 13.803H116.325V4.097H119.062ZM137.67 17H149.239V13.78H141.212V0.899999H137.67V17ZM150.53 17H154.141L155.613 13.389H162.421L163.893 17H167.596L160.696 0.784999H157.43L150.53 17ZM156.878 10.261L159.017 5.04L161.156 10.261H156.878ZM170.081 17H173.623V11.848H176.406L179.856 17H183.996L180.063 11.25C182.11 10.491 183.513 8.858 183.513 6.259V6.213C183.513 4.695 183.03 3.43 182.133 2.533C181.075 1.475 179.488 0.899999 177.441 0.899999H170.081V17ZM173.623 8.72V4.097H177.142C178.867 4.097 179.925 4.879 179.925 6.397V6.443C179.925 7.8 178.936 8.72 177.211 8.72H173.623ZM186.702 17H190.244V11.848H193.027L196.477 17H200.617L196.684 11.25C198.731 10.491 200.134 8.858 200.134 6.259V6.213C200.134 4.695 199.651 3.43 198.754 2.533C197.696 1.475 196.109 0.899999 194.062 0.899999H186.702V17ZM190.244 8.72V4.097H193.763C195.488 4.097 196.546 4.879 196.546 6.397V6.443C196.546 7.8 195.557 8.72 193.832 8.72H190.244ZM207.27 17H210.812V10.583L216.999 0.899999H212.974L209.064 7.363L205.223 0.899999H201.083L207.27 10.652V17ZM0.399774 49H8.05877C11.6928 49 14.0848 47.528 14.0848 44.584V44.538C14.0848 42.376 12.9348 41.295 11.0718 40.582C12.2218 39.938 13.1878 38.926 13.1878 37.109V37.063C13.1878 35.959 12.8198 35.062 12.0838 34.326C11.1638 33.406 9.71477 32.9 7.87477 32.9H0.399774V49ZM9.66877 37.707C9.66877 38.903 8.67977 39.409 7.11577 39.409H3.84977V36.005H7.34577C8.84077 36.005 9.66877 36.603 9.66877 37.661V37.707ZM10.5658 44.101V44.147C10.5658 45.343 9.62277 45.895 8.05877 45.895H3.84977V42.353H7.94377C9.76077 42.353 10.5658 43.02 10.5658 44.101ZM15.6184 49H19.2294L20.7014 45.389H27.5094L28.9814 49H32.6844L25.7844 32.785H22.5184L15.6184 49ZM21.9664 42.261L24.1054 37.04L26.2444 42.261H21.9664ZM35.1693 49H47.4283V45.849H38.6883V42.468H46.2783V39.317H38.6883V36.051H47.3133V32.9H35.1693V49ZM50.5775 49H54.1195V43.848H56.9025L60.3525 49H64.4925L60.5595 43.25C62.6065 42.491 64.0095 40.858 64.0095 38.259V38.213C64.0095 36.695 63.5265 35.43 62.6295 34.533C61.5715 33.475 59.9845 32.9 57.9375 32.9H50.5775V49ZM54.1195 40.72V36.097H57.6385C59.3635 36.097 60.4215 36.879 60.4215 38.397V38.443C60.4215 39.8 59.4325 40.72 57.7075 40.72H54.1195ZM74.0941 49H77.6361V42.767H85.3181V39.547H77.6361V36.12H86.3531V32.9H74.0941V49ZM85.9661 49H89.5771L91.0491 45.389H97.8571L99.3291 49H103.032L96.1321 32.785H92.8661L85.9661 49ZM92.3141 42.261L94.4531 37.04L96.5921 42.261H92.3141ZM105.517 49H108.99V38.558L113.475 45.366H113.567L118.098 38.489V49H121.617V32.9H117.799L113.567 39.708L109.335 32.9H105.517V49ZM125.646 49H129.188V32.9H125.646V49ZM133.211 49H144.78V45.78H136.753V32.9H133.211V49ZM148.995 49H152.537V42.583L158.724 32.9H154.699L150.789 39.363L146.948 32.9H142.808L148.995 42.652V49ZM167.824 49H171.366V42.767H179.048V39.547H171.366V36.12H180.083V32.9H167.824V49ZM189.633 49.253C193.957 49.253 196.694 46.861 196.694 41.985V32.9H193.152V42.123C193.152 44.676 191.841 45.987 189.679 45.987C187.517 45.987 186.206 44.63 186.206 42.008V32.9H182.664V42.1C182.664 46.838 185.309 49.253 189.633 49.253ZM200.302 49H203.798V38.765L211.595 49H214.608V32.9H211.112V42.813L203.568 32.9H200.302V49ZM218.473 49H224.752C229.812 49 233.308 45.481 233.308 40.95V40.904C233.308 36.373 229.812 32.9 224.752 32.9H218.473V49ZM224.752 36.097C227.65 36.097 229.605 38.098 229.605 40.95V40.996C229.605 43.848 227.65 45.803 224.752 45.803H222.015V36.097H224.752Z" fill="#695E4A"/>
</svg>
