<svg width="201" height="50" viewBox="0 0 201 50" fill="none" xmlns="http://www.w3.org/2000/svg">
<path d="M5.16293 17H8.70493V4.166H13.6039V0.899999H0.263934V4.166H5.16293V17ZM23.4517 17.276C28.4197 17.276 32.0307 13.527 32.0307 8.95V8.904C32.0307 4.327 28.4657 0.624 23.4977 0.624C18.5297 0.624 14.9187 4.373 14.9187 8.95V8.996C14.9187 13.573 18.4837 17.276 23.4517 17.276ZM23.4977 14.01C20.6457 14.01 18.6217 11.71 18.6217 8.95V8.904C18.6217 6.144 20.5997 3.89 23.4517 3.89C26.3037 3.89 28.3277 6.19 28.3277 8.95V8.996C28.3277 11.756 26.3497 14.01 23.4977 14.01ZM35.1727 17H38.6457V6.558L43.1307 13.366H43.2227L47.7537 6.489V17H51.2727V0.899999H47.4547L43.2227 7.708L38.9907 0.899999H35.1727V17ZM60.656 17H64.267L65.739 13.389H72.547L74.019 17H77.722L70.822 0.784999H67.556L60.656 17ZM67.004 10.261L69.143 5.04L71.282 10.261H67.004ZM80.2069 17H83.7029V6.765L91.4999 17H94.5129V0.899999H91.0169V10.813L83.4729 0.899999H80.2069V17ZM98.3778 17H104.657C109.717 17 113.213 13.481 113.213 8.95V8.904C113.213 4.373 109.717 0.899999 104.657 0.899999H98.3778V17ZM104.657 4.097C107.555 4.097 109.51 6.098 109.51 8.95V8.996C109.51 11.848 107.555 13.803 104.657 13.803H101.92V4.097H104.657ZM126.922 17.23C128.67 17.23 130.119 16.724 131.108 15.735C132.074 14.769 132.626 13.343 132.626 11.434V0.899999H128.992V11.273C128.992 13.136 128.164 13.941 126.83 13.941C125.703 13.941 124.806 13.343 123.886 12.331L121.655 14.815C122.759 16.126 124.415 17.23 126.922 17.23ZM134.283 17H137.894L139.366 13.389H146.174L147.646 17H151.349L144.449 0.784999H141.183L134.283 17ZM140.631 10.261L142.77 5.04L144.909 10.261H140.631ZM153.834 17H157.307V6.558L161.792 13.366H161.884L166.415 6.489V17H169.934V0.899999H166.116L161.884 7.708L157.652 0.899999H153.834V17ZM173.802 17H186.061V13.849H177.321V10.468H184.911V7.317H177.321V4.051H185.946V0.899999H173.802V17ZM189.21 17H200.779V13.78H192.752V0.899999H189.21V17ZM50.0306 49H53.5726V44.17H56.2636C59.8746 44.17 62.7726 42.238 62.7726 38.512V38.466C62.7726 35.177 60.4496 32.9 56.6086 32.9H50.0306V49ZM53.5726 41.019V36.097H56.3096C58.0806 36.097 59.1846 36.948 59.1846 38.535V38.581C59.1846 39.961 58.1496 41.019 56.3786 41.019H53.5726ZM65.3939 49H77.6529V45.849H68.9129V42.468H76.5029V39.317H68.9129V36.051H77.5379V32.9H65.3939V49ZM80.8021 49H84.3441V43.848H87.1271L90.5771 49H94.7171L90.7841 43.25C92.8311 42.491 94.2341 40.858 94.2341 38.259V38.213C94.2341 36.695 93.7511 35.43 92.8541 34.533C91.7961 33.475 90.2091 32.9 88.1621 32.9H80.8021V49ZM84.3441 40.72V36.097H87.8631C89.5881 36.097 90.6461 36.879 90.6461 38.397V38.443C90.6461 39.8 89.6571 40.72 87.9321 40.72H84.3441ZM97.4232 49H100.965V44.078L102.828 42.146L107.819 49H112.074L105.22 39.731L111.775 32.9H107.497L100.965 39.938V32.9H97.4232V49ZM114.385 49H117.927V32.9H114.385V49ZM121.951 49H125.447V38.765L133.244 49H136.257V32.9H132.761V42.813L125.217 32.9H121.951V49ZM145.848 49.23C149.321 49.23 151.759 47.436 151.759 44.239V44.193C151.759 41.387 149.919 40.214 146.653 39.363C143.87 38.65 143.18 38.305 143.18 37.247V37.201C143.18 36.419 143.893 35.798 145.25 35.798C146.607 35.798 148.01 36.396 149.436 37.385L151.276 34.717C149.643 33.406 147.642 32.67 145.296 32.67C142.007 32.67 139.661 34.602 139.661 37.523V37.569C139.661 40.766 141.754 41.663 144.997 42.491C147.688 43.181 148.24 43.641 148.24 44.538V44.584C148.24 45.527 147.366 46.102 145.917 46.102C144.077 46.102 142.559 45.343 141.11 44.147L139.017 46.654C140.949 48.379 143.41 49.23 145.848 49.23Z" fill="#695E4A"/>
</svg>
