<svg width="141" height="114" viewBox="0 0 141 114" fill="none" xmlns="http://www.w3.org/2000/svg">
<path d="M44.1053 113.878C97.0108 113.878 125.925 70.0517 125.925 32.0576C125.925 30.8004 125.89 29.5782 125.856 28.3559C131.478 24.3051 136.367 19.2415 140.208 13.4795C135.04 15.7843 129.522 17.3209 123.69 18.0193C129.627 14.4573 134.202 8.83503 136.332 2.09526C130.779 5.37785 124.633 7.7874 118.068 9.07948C112.83 3.49211 105.357 0 97.0806 0C81.1915 0 68.3056 12.8859 68.3056 28.775C68.3056 31.0448 68.5501 33.21 69.039 35.3401C45.153 34.0481 23.9559 22.5939 9.74298 5.20324C7.26358 9.46361 5.83182 14.3875 5.83182 19.6606C5.83182 29.648 10.8954 38.4481 18.6479 43.6164C13.9335 43.4767 9.49853 42.1847 5.62229 40.0196C5.62229 40.1243 5.62229 40.264 5.62229 40.4037C5.62229 54.3372 15.5399 65.9659 28.7051 68.585C26.2956 69.2485 23.7463 69.5977 21.1273 69.5977C19.2764 69.5977 17.4605 69.4231 15.7145 69.0739C19.3812 80.4931 29.9972 88.8043 42.5688 89.0488C32.7211 96.7663 20.3241 101.376 6.84453 101.376C4.53974 101.376 2.23495 101.236 0 100.992C12.7462 109.093 27.8321 113.878 44.1053 113.878Z" fill="#695E4A"/>
</svg>
