<svg width="210" height="103" viewBox="0 0 210 103" fill="none" xmlns="http://www.w3.org/2000/svg">
<path d="M173.951 102.594C169.005 102.594 164.117 102.594 159.171 102.594C159.171 97.4776 159.171 92.3614 159.171 87.302C155.703 95.6585 149.052 99.6946 140.753 101.571C139.502 101.855 138.251 102.253 137.001 102.594C133.192 102.594 129.44 102.594 125.631 102.594C124.835 102.366 124.04 102.139 123.244 101.968C117.275 100.888 111.704 98.9556 107.44 94.351C103.461 90.0875 101.699 85.0282 101.813 79.0593C106.588 79.0593 111.135 79.0593 114.603 79.0593C116.593 82.1858 117.73 85.2556 119.89 87.2452C124.608 91.5655 137.342 91.5087 142.515 87.6431C147.119 84.2323 146.665 77.6381 141.492 75.1368C139.559 74.1704 137.455 73.602 135.352 73.0335C126.484 70.5322 117.104 69.7932 109.032 64.7907C100.448 73.4883 90.1021 74.9663 78.9601 72.465C67.2497 69.8501 60.5986 61.8347 56.9036 50.6927C56.5057 51.6023 56.392 52.455 56.2783 53.2508C54.7434 62.5737 49.6841 68.9974 40.5317 71.8397C33.4259 73.9999 26.2063 74.341 18.93 72.5787C8.81124 70.1343 2.04648 64.336 0.511621 53.5919C0.397927 53.0234 0.17054 52.5118 0 52.0002C0 35.1167 0 18.2901 0 1.40661C4.88882 1.40661 9.77764 1.40661 14.8938 1.40661C14.8938 2.82778 14.8938 3.85102 14.8938 4.87426C14.8938 18.4038 14.8938 31.9902 14.8938 45.5197C14.8938 47.5093 15.0075 49.499 15.4055 51.4317C16.3719 56.7185 20.2374 60.5841 25.2968 60.982C27.9118 61.2094 30.6404 61.0388 33.1985 60.4704C38.0873 59.4471 40.9865 55.9226 41.555 50.9201C41.7255 49.2147 41.7824 47.5093 41.7824 45.8039C41.7824 32.1607 41.7824 18.5175 41.7824 4.87426C41.7824 3.79417 41.7824 2.65724 41.7824 1.57715C46.9554 1.57715 51.7874 1.57715 56.9036 1.57715C56.9036 8.73984 56.9036 15.732 56.9036 22.7241C64.1231 1.69084 81.4614 -2.0042 95.6731 0.838139C107.895 3.28255 117.616 13.9129 117.389 24.5432C112.67 24.5432 107.952 24.5432 103.234 24.5432C102.665 23.1221 102.267 21.8146 101.642 20.5071C100.107 17.0395 97.4922 14.6519 93.854 13.4581C84.8722 10.4452 76.2883 14.3677 72.6501 23.1221C69.9215 29.7163 69.8646 36.5947 70.7742 43.53C71.3427 48.0209 72.7638 52.2276 75.8335 55.6952C80.5518 60.982 86.4639 61.9484 92.9444 60.0724C98.3449 58.4807 102.267 53.5351 102.779 48.0778C103.632 38.8686 108.52 32.786 117.161 29.9437C125.006 27.3287 133.021 27.3287 140.923 29.6026C147.517 31.4785 152.633 35.4578 155.362 41.8815C156.556 44.6101 157.011 47.6799 157.863 50.8064C152.52 50.8064 147.972 50.8064 143.367 50.8064C142.799 46.9408 141.264 43.7006 137.683 42.1089C132.282 39.6645 126.655 39.4939 121.14 41.8246C118.298 43.0184 116.593 45.1786 116.422 48.362C116.195 52.3981 118.184 54.7857 122.903 56.0363C129.667 57.7986 136.489 59.3903 143.254 61.1525C149.905 62.9148 155.874 65.7003 159.285 72.5219C159.285 59.1629 159.285 45.8039 159.285 32.2744C176.168 32.2744 192.597 32.2744 209.082 32.2744C209.082 36.2537 209.082 40.2329 209.082 44.2122C207.945 44.2691 206.808 44.4396 205.672 44.4396C196.178 44.4396 186.742 44.4396 177.248 44.4396C176.168 44.4396 175.031 44.4396 174.008 44.4396C174.008 49.9537 174.008 55.0131 174.008 60.2998C184.24 60.2998 194.245 60.2998 204.364 60.2998C204.364 64.4496 204.364 68.3721 204.364 72.6356C194.132 72.6356 184.07 72.6356 173.781 72.6356C173.951 82.7543 173.951 92.6456 173.951 102.594Z" fill="#695E4A"/>
<path d="M137 102.593C138.251 102.251 139.501 101.854 140.752 101.569C149.108 99.6934 155.703 95.6573 159.17 87.3008C159.17 92.417 159.17 97.5332 159.17 102.593C151.78 102.593 144.39 102.593 137 102.593Z" fill="white"/>
</svg>
