<svg width="115" height="115" viewBox="0 0 115 115" fill="none" xmlns="http://www.w3.org/2000/svg">
<path d="M114.38 0H0V114.38H114.38V0Z" fill="#695E4A"/>
<path d="M41.2312 36.0134V41.6262H42.5055C44.1135 41.6262 44.872 40.8374 44.872 38.6226V38.2585H46.753V46.9963H44.872V46.6322C44.872 44.4478 44.1438 43.5983 42.5055 43.5983H41.2312V49.8786H46.6316C49.0892 49.8786 49.969 48.2706 50.2724 45.1456H52.2141V51.881H34.4958V49.8786H36.0128C36.9533 49.8786 37.4388 49.6359 37.4388 47.9975V37.5303C37.4388 36.3471 36.8926 35.983 35.6487 35.983H35.1026C33.8283 35.983 33.1912 36.2864 32.7665 37.6214L27.8818 51.881H24.15L21.3284 42.5971H21.2677L18.1124 51.881H14.3807L9.31394 36.9236C9.10156 36.1954 8.70714 35.9527 7.6756 35.9527H7.31152V33.9503H15.1391V35.9527H13.9862C13.4098 35.9527 13.1671 36.3168 13.1671 36.6808C13.1671 36.9539 13.2581 37.2876 13.4098 37.6517L16.7775 47.6334H16.8382L20.0542 38.2585L19.5991 36.9842C19.326 36.1954 18.7799 35.983 17.9911 35.983H17.3539V33.9806H25.4243V35.983H23.9983C23.4522 35.983 23.2398 36.2257 23.2398 36.5898C23.2398 36.8629 23.3612 37.2573 23.4522 37.5L26.4255 47.4817H26.4862L29.9145 37.7427C30.0359 37.409 30.1269 37.1663 30.1269 36.8325C30.1269 36.4078 29.9145 36.0134 28.974 36.0134H27.6694V34.011H52.2141V40.1396H50.2117C49.8173 37.5304 49.5746 36.0134 45.9945 36.0134H41.2312ZM70.6303 51.9113V45.1759H68.5672C68.2941 48.2706 67.7177 49.9089 64.9264 49.9089H60.8609V37.2573C60.8609 36.2864 61.2553 36.0134 62.4689 36.0134H63.9859V34.011H54.0952V36.0134H55.6425C56.7347 36.0134 57.0988 36.3774 57.0988 37.1966V48.7257C57.0988 49.6662 56.583 49.9089 55.8246 49.9089H54.0952V51.9113H70.6303ZM88.9857 51.9113V45.1759H86.9226C86.6496 48.2706 86.0731 49.9089 83.3122 49.9089H79.2467V37.2573C79.2467 36.2864 79.6411 36.0134 80.8547 36.0134H82.3717V34.011H72.481V36.0134H74.0587C75.1509 36.0134 75.515 36.3774 75.515 37.1966V48.7257C75.515 49.6662 74.9992 49.9089 74.2407 49.9089H72.481V51.9113H88.9857ZM102.608 35.3459C102.457 35.1639 100.788 33.4648 97.5718 33.4648C94.2041 33.4648 90.8061 35.1639 90.8061 38.835C90.8061 42.1723 93.4457 43.6893 96.51 44.3264C97.5112 44.5388 98.118 44.6602 99.0281 44.8422C101.304 45.3276 102.821 46.0254 102.821 47.6031C102.821 48.8167 101.546 50.1213 99.0281 50.1213C95.5088 50.1213 93.4153 48.1492 92.9602 45.1456H90.8971V51.881H92.7175L93.3243 50.273C93.7491 50.6674 95.4784 52.4271 98.7551 52.4271C102.912 52.4271 106.067 50.5764 106.067 46.9053C106.067 43.3556 103.124 41.8386 99.5439 41.1104C98.9068 40.9587 98.3303 40.8374 97.6629 40.716C95.4481 40.2306 94.0221 39.6845 94.0221 38.0765C94.0221 36.6808 95.4784 35.7403 97.6932 35.7403C101 35.7403 102.274 37.8337 102.972 40.1092H104.975V33.9806H103.518L102.608 35.3459ZM20.5093 79.7934V77.791H19.144C17.9 77.791 17.445 77.4269 17.445 76.3954V71.5107H18.5372C20.2059 71.5107 20.934 72.2389 20.934 74.1503V74.7267H22.8151V66.5047H20.934V66.8687C20.934 68.2644 20.4182 69.5386 18.6889 69.5386H17.4146V63.8955H20.934C24.8782 63.8955 25.3029 65.8979 25.576 68.0217H27.5177V61.8931H10.6185V63.8955H12.4086C13.2277 63.8955 13.6828 64.2595 13.6828 64.8967V76.4561C13.6828 77.2146 13.2884 77.791 12.3176 77.791H10.6185V79.7934H20.5093ZM95.4177 61.3469C89.5622 61.3469 85.6787 65.4731 85.6787 70.8432C85.6787 76.2133 89.5622 80.3395 95.4177 80.3395C101.273 80.3395 105.157 76.2133 105.157 70.8432C105.157 65.4731 101.273 61.3469 95.4177 61.3469ZM95.4177 63.4707C99.6653 63.4707 100.909 66.9901 100.909 70.8432C100.909 74.6964 99.6349 78.2158 95.4177 78.2158C91.1702 78.2158 89.8959 74.6964 89.8959 70.8432C89.8959 66.9901 91.1702 63.4707 95.4177 63.4707ZM78.913 63.3494C78.5186 63.0156 76.8499 61.3469 73.5429 61.3469C68.2638 61.3469 64.9264 65.3821 64.9264 70.8432C64.9264 76.3347 68.2941 80.3395 73.5429 80.3395C76.9106 80.3395 78.7309 78.7922 79.1557 78.4281L80.1569 79.7934H81.9773V73.5738C81.9773 72.5119 82.3717 72.2389 83.4033 72.2389H83.8887V70.2364H75.606V72.2389H76.8196C77.6994 72.2389 78.2455 72.6333 78.2455 73.5131V74.5447C78.2455 76.6078 76.9713 78.0337 74.2407 78.0337C70.8123 78.0337 69.083 74.9391 69.083 70.8432C69.083 66.8081 70.8123 63.6831 74.1193 63.6831C77.578 63.6831 78.7613 66.9294 79.1557 68.0217H81.3705V61.8931H79.4894L78.913 63.3494ZM64.0466 75.5762V76.0616C64.0466 79.1563 62.5599 80.3395 60.3451 80.3395C57.7359 80.3395 56.8561 79.0956 56.8561 76.6381V75.6976C56.8561 72.6333 55.5515 71.3894 52.5479 71.3894H51.1219V76.7898C51.1219 77.4876 51.4556 77.7607 52.2445 77.7607H54.2165V79.7631H36.3465V77.7607H38.3489C38.8951 77.7607 39.1074 77.6393 39.1074 77.3056C39.1074 77.1539 39.0467 76.8808 38.9557 76.5774C38.8647 76.3347 38.0152 74.0289 38.0152 74.0289H31.6439C31.6439 74.0289 30.8551 76.1527 30.7337 76.5167C30.6427 76.7898 30.582 77.0022 30.582 77.2752C30.582 77.6697 30.8854 77.791 31.4315 77.791H33.3429V79.7934H24.8175V77.791C26.2434 77.791 27.1536 77.5786 27.6694 76.3347L33.3732 61.8931H36.8016L42.6572 76.3347C43.1426 77.609 44.0528 77.791 45.4787 77.791H46.2069C46.9654 77.791 47.3295 77.5483 47.3295 76.8201V64.8663C47.3295 64.1382 47.0564 63.8955 46.2069 63.8955H44.3258V61.8931H56.0976C60.0114 61.8931 61.8318 63.7438 61.8318 66.535C61.8318 69.9937 58.3731 70.6915 56.7651 70.7826V70.8129C58.6461 70.9646 60.2541 71.7534 60.2541 74.484V75.5459C60.2541 77.3966 60.6485 77.791 61.2857 77.791C61.9228 77.791 62.2565 77.2752 62.2565 76.092V75.6066H64.0466V75.5762ZM37.2264 72.0568L34.8295 65.5338H34.7385L32.3114 72.0568H37.2264ZM58.0393 66.6564C58.0393 65.0787 56.9168 63.8955 54.4289 63.8955H51.0916V69.4173H54.4289C56.7347 69.4173 58.0393 68.3857 58.0393 66.6564Z" fill="white"/>
</svg>
